<svg xmlns="http://www.w3.org/2000/svg" width="24" height="24" viewBox="0 0 24 24">
  <metadata><?xpacket begin="﻿" id="W5M0MpCehiHzreSzNTczkc9d"?>
<x:xmpmeta xmlns:x="adobe:ns:meta/" x:xmptk="Adobe XMP Core 5.6-c140 79.160451, 2017/05/06-01:08:21        ">
   <rdf:RDF xmlns:rdf="http://www.w3.org/1999/02/22-rdf-syntax-ns#">
      <rdf:Description rdf:about=""/>
   </rdf:RDF>
</x:xmpmeta>
                                                                                                    
                                                                                                    
                                                                                                    
                                                                                                    
                                                                                                    
                                                                                                    
                                                                                                    
                                                                                                    
                                                                                                    
                                                                                                    
                                                                                                    
                                                                                                    
                                                                                                    
                                                                                                    
                                                                                                    
                                                                                                    
                                                                                                    
                                                                                                    
                                                                                                    
                                                                                                    
                           
<?xpacket end="w"?></metadata>
<defs>
    <style>
      .cls-1 {
        fill: #f58220;
        fill-rule: evenodd;
      }
    </style>
  </defs>
  <path id="add_" data-name="add+" class="cls-1" d="M1113,222a12,12,0,1,1,12-12A12,12,0,0,1,1113,222Zm4-13h-3v-3a1,1,0,0,0-1-1h0a1,1,0,0,0-1,1v3h-3a1,1,0,0,0,0,2h3v3a1,1,0,0,0,1,1h0a1,1,0,0,0,1-1v-3h3A1,1,0,0,0,1117,209Z" transform="translate(-1101 -198)"/>
</svg>
