<svg xmlns="http://www.w3.org/2000/svg" width="15" height="16" viewBox="0 0 15 16">
  <metadata><?xpacket begin="﻿" id="W5M0MpCehiHzreSzNTczkc9d"?>
<x:xmpmeta xmlns:x="adobe:ns:meta/" x:xmptk="Adobe XMP Core 5.6-c138 79.159824, 2016/09/14-01:09:01        ">
   <rdf:RDF xmlns:rdf="http://www.w3.org/1999/02/22-rdf-syntax-ns#">
      <rdf:Description rdf:about=""/>
   </rdf:RDF>
</x:xmpmeta>
                                                                                                    
                                                                                                    
                                                                                                    
                                                                                                    
                                                                                                    
                                                                                                    
                                                                                                    
                                                                                                    
                                                                                                    
                                                                                                    
                                                                                                    
                                                                                                    
                                                                                                    
                                                                                                    
                                                                                                    
                                                                                                    
                                                                                                    
                                                                                                    
                                                                                                    
                                                                                                    
                           
<?xpacket end="w"?></metadata>
<defs>
    <style>
      .cls-1 {
        fill: #428bca;
        fill-rule: evenodd;
      }
    </style>
  </defs>
  <path id="Forma_1" data-name="Forma 1" class="cls-1" d="M979,350h0c0-1.229.105-2-1-2h-6.75a1.282,1.282,0,0,0-.917.35A2.839,2.839,0,0,0,970,350h-1c0.614,2.683-1,2-1,2l0.446,10.65a1.358,1.358,0,0,0,1.431,1.35h9.246a1.357,1.357,0,0,0,1.431-1.345L981,352A1.758,1.758,0,0,0,979,350Zm-7-1h5v1h-5v-1Zm2,5h1v8h-1v-8Zm-3,0h1v8h-1v-8Zm6,0h1v8h-1v-8Zm-9-4h13a1,1,0,0,1,0,2H968A1,1,0,0,1,968,350Z" transform="translate(-967 -348)"/>
</svg>
