<svg xmlns="http://www.w3.org/2000/svg" width="82" height="74" viewBox="0 0 82 74">
  <metadata><?xpacket begin="﻿" id="W5M0MpCehiHzreSzNTczkc9d"?>
<x:xmpmeta xmlns:x="adobe:ns:meta/" x:xmptk="Adobe XMP Core 5.6-c140 79.160451, 2017/05/06-01:08:21        ">
   <rdf:RDF xmlns:rdf="http://www.w3.org/1999/02/22-rdf-syntax-ns#">
      <rdf:Description rdf:about=""/>
   </rdf:RDF>
</x:xmpmeta>
                                                                                                    
                                                                                                    
                                                                                                    
                                                                                                    
                                                                                                    
                                                                                                    
                                                                                                    
                                                                                                    
                                                                                                    
                                                                                                    
                                                                                                    
                                                                                                    
                                                                                                    
                                                                                                    
                                                                                                    
                                                                                                    
                                                                                                    
                                                                                                    
                                                                                                    
                                                                                                    
                           
<?xpacket end="w"?></metadata>
<defs>
    <style>
      .cls-1 {
        fill: #ebedf0;
        fill-rule: evenodd;
      }
    </style>
  </defs>
  <path id="books" class="cls-1" d="M559.619,232a12,12,0,0,0-12.012,11.963,11.876,11.876,0,0,0,2.408,7.177H538v4.785h7.207a2.591,2.591,0,0,1,1.249,1.481,14.651,14.651,0,0,1,0,11.394,2.587,2.587,0,0,1-1.249,1.481H538v4.783h12.018a11.877,11.877,0,0,0-2.409,7.179A12,12,0,0,0,559.619,294.2h2.4V306.01l9.61-6.38,9.609,6.38V294.2H620v-4.785h-7.207a2.591,2.591,0,0,1-1.249-1.481,14.651,14.651,0,0,1,0-11.394,2.582,2.582,0,0,1,1.249-1.48H620v-4.785H607.98a11.9,11.9,0,0,0,0-14.356H620v-4.785h-7.207a2.586,2.586,0,0,1-1.249-1.48,14.651,14.651,0,0,1,0-11.394,2.587,2.587,0,0,1,1.249-1.481H620V232H559.619Zm12.012,61.882-4.8,3.19V284.633h9.61v12.436Zm35.309-4.461h-25.7v-4.785h14.735v-4.785H562.023v9.57h-2.4a7.179,7.179,0,1,1,0-14.357H606.94A19.679,19.679,0,0,0,606.94,289.418Zm-55.884-19.14a19.676,19.676,0,0,0,0-14.356h10.965V267.57l9.61-6.38,9.609,6.38V255.922h17.137a7.178,7.178,0,1,1,0,14.356H551.056Zm25.38-23.926V258.63l-4.805-3.19-4.8,3.19V246.352h9.61Zm30.5,4.785h-25.7v-4.785h14.735v-4.785H562.023v9.57h-2.4a7.179,7.179,0,1,1,0-14.357H606.94A19.679,19.679,0,0,0,606.94,251.137Z" transform="translate(-538 -232)"/>
</svg>
