<svg xmlns="http://www.w3.org/2000/svg" width="22.781" height="14.75" viewBox="0 0 22.781 14.75">
  <metadata><?xpacket begin="﻿" id="W5M0MpCehiHzreSzNTczkc9d"?>
<x:xmpmeta xmlns:x="adobe:ns:meta/" x:xmptk="Adobe XMP Core 5.6-c140 79.160451, 2017/05/06-01:08:21        ">
   <rdf:RDF xmlns:rdf="http://www.w3.org/1999/02/22-rdf-syntax-ns#">
      <rdf:Description rdf:about=""/>
   </rdf:RDF>
</x:xmpmeta>
                                                                                                    
                                                                                                    
                                                                                                    
                                                                                                    
                                                                                                    
                                                                                                    
                                                                                                    
                                                                                                    
                                                                                                    
                                                                                                    
                                                                                                    
                                                                                                    
                                                                                                    
                                                                                                    
                                                                                                    
                                                                                                    
                                                                                                    
                                                                                                    
                                                                                                    
                                                                                                    
                           
<?xpacket end="w"?></metadata>
<defs>
    <style>
      .cls-1 {
        fill: #428bca;
        fill-rule: evenodd;
      }
    </style>
  </defs>
  <path id="book" class="cls-1" d="M159.691,614.944l-2.636,8.687a1.987,1.987,0,0,1-.734,1.031,1.91,1.91,0,0,1-1.174.416H146.3a2.344,2.344,0,0,1-1.424-.512,2.7,2.7,0,0,1-.954-1.261,1.735,1.735,0,0,1-.019-1.218c0-.026.009-0.112,0.029-0.259s0.031-.265.038-0.355a0.533,0.533,0,0,0-.029-0.206,0.5,0.5,0,0,1-.029-0.187,0.611,0.611,0,0,1,.077-0.2,2.254,2.254,0,0,1,.158-0.225,2.373,2.373,0,0,0,.158-0.226,6.294,6.294,0,0,0,.432-0.877,5.188,5.188,0,0,0,.288-0.877,0.757,0.757,0,0,0,0-.288,0.856,0.856,0,0,1,0-.268,0.79,0.79,0,0,1,.163-0.269,1.763,1.763,0,0,0,.163-0.22,5.908,5.908,0,0,0,.4-0.882,3.915,3.915,0,0,0,.24-0.863,1.437,1.437,0,0,0-.024-0.307,0.444,0.444,0,0,1,0-.269,0.765,0.765,0,0,1,.211-0.292c0.115-.112.185-0.184,0.211-0.216a3.963,3.963,0,0,0,.407-0.81,3.662,3.662,0,0,0,.264-0.925,0.8,0.8,0,0,0-.029-0.245,0.627,0.627,0,0,1-.019-0.254,0.539,0.539,0,0,1,.086-0.172c0.045-.064.1-0.138,0.173-0.221s0.124-.15.163-0.2a2.236,2.236,0,0,0,.158-0.293c0.054-.118.1-0.23,0.144-0.335s0.092-.221.153-0.346a1.642,1.642,0,0,1,.187-0.306,1.137,1.137,0,0,1,.254-0.226,0.644,0.644,0,0,1,.345-0.11,1.968,1.968,0,0,1,.456.053l-0.01.028a2.712,2.712,0,0,1,.489-0.086h7.3a1.263,1.263,0,0,1,1.093.537,1.365,1.365,0,0,1,.172,1.246l-2.627,8.687a3.742,3.742,0,0,1-.685,1.472,1.765,1.765,0,0,1-1.232.331H145.3a0.422,0.422,0,0,0-.364.144,0.44,0.44,0,0,0-.01.412,1.269,1.269,0,0,0,1.381.671h8.85a1.067,1.067,0,0,0,.537-0.148,0.7,0.7,0,0,0,.336-0.4l2.876-9.464a1.532,1.532,0,0,0,.048-0.546,1.267,1.267,0,0,1,.566.412A1.355,1.355,0,0,1,159.691,614.944Zm-4.089-1a0.426,0.426,0,0,0,.158-0.216l0.2-.614a0.248,0.248,0,0,0-.02-0.215,0.207,0.207,0,0,0-.191-0.091h-5.83a0.4,0.4,0,0,0-.245.091,0.425,0.425,0,0,0-.158.215l-0.2.614a0.25,0.25,0,0,0,.019.216,0.208,0.208,0,0,0,.192.091h5.829A0.4,0.4,0,0,0,155.6,613.942ZM148.54,616.4a0.21,0.21,0,0,0,.192.091h5.83a0.4,0.4,0,0,0,.244-0.091,0.42,0.42,0,0,0,.158-0.215l0.2-.614a0.254,0.254,0,0,0-.019-0.216,0.212,0.212,0,0,0-.192-0.091h-5.83a0.4,0.4,0,0,0-.244.091,0.434,0.434,0,0,0-.159.216l-0.2.614A0.251,0.251,0,0,0,148.54,616.4Zm-3.7-1.615h-3.906a0.781,0.781,0,1,1,0-1.562h3.906A0.781,0.781,0,0,1,144.844,614.781Zm-2.344,5.5a0.782,0.782,0,0,1-.781.782h-3.938a0.782,0.782,0,0,1,0-1.563h3.938A0.781,0.781,0,0,1,142.5,620.281Zm-1.558-2.344a0.785,0.785,0,0,1-.786-0.785v-0.023a0.785,0.785,0,0,1,.786-0.785H142.5a0.784,0.784,0,0,1,.785.785v0.023a0.784,0.784,0,0,1-.785.785h-1.554Z" transform="translate(-137 -610.344)"/>
</svg>
