<svg xmlns="http://www.w3.org/2000/svg" width="25.56" height="32" viewBox="0 0 25.56 32">
  <metadata><?xpacket begin="﻿" id="W5M0MpCehiHzreSzNTczkc9d"?>
<x:xmpmeta xmlns:x="adobe:ns:meta/" x:xmptk="Adobe XMP Core 5.6-c140 79.160451, 2017/05/06-01:08:21        ">
   <rdf:RDF xmlns:rdf="http://www.w3.org/1999/02/22-rdf-syntax-ns#">
      <rdf:Description rdf:about=""/>
   </rdf:RDF>
</x:xmpmeta>
                                                                                                    
                                                                                                    
                                                                                                    
                                                                                                    
                                                                                                    
                                                                                                    
                                                                                                    
                                                                                                    
                                                                                                    
                                                                                                    
                                                                                                    
                                                                                                    
                                                                                                    
                                                                                                    
                                                                                                    
                                                                                                    
                                                                                                    
                                                                                                    
                                                                                                    
                                                                                                    
                           
<?xpacket end="w"?></metadata>
<defs>
    <style>
      .cls-1 {
        fill: #f58220;
        fill-rule: evenodd;
      }
    </style>
  </defs>
  <path class="cls-1" d="M1208.28,51.734l-1.84-20.753a0.79,0.79,0,0,0-.8-0.722h-3.88a6.26,6.26,0,0,0-12.52,0h-3.88a0.8,0.8,0,0,0-.8.722l-1.84,20.753v0.073A4.5,4.5,0,0,0,1187.45,56h16.1a4.5,4.5,0,0,0,4.73-4.193V51.734ZM1195.5,25.59a4.671,4.671,0,0,1,4.67,4.67h-9.34A4.671,4.671,0,0,1,1195.5,25.59Zm8.05,28.814h-16.1a2.917,2.917,0,0,1-3.14-2.57l1.77-19.984h3.16v2.789a0.791,0.791,0,0,0,.79.795,0.8,0.8,0,0,0,.8-0.795V31.849h9.34v2.789a0.8,0.8,0,0,0,.8.795,0.791,0.791,0,0,0,.79-0.795V31.849h3.16l1.77,19.991A2.917,2.917,0,0,1,1203.55,54.4Z" transform="translate(-1182.72 -24)"/>
</svg>
