<svg xmlns="http://www.w3.org/2000/svg" width="65" height="70" viewBox="0 0 65 70">
  <metadata><?xpacket begin="﻿" id="W5M0MpCehiHzreSzNTczkc9d"?>
<x:xmpmeta xmlns:x="adobe:ns:meta/" x:xmptk="Adobe XMP Core 5.6-c140 79.160451, 2017/05/06-01:08:21        ">
   <rdf:RDF xmlns:rdf="http://www.w3.org/1999/02/22-rdf-syntax-ns#">
      <rdf:Description rdf:about=""/>
   </rdf:RDF>
</x:xmpmeta>
                                                                                                    
                                                                                                    
                                                                                                    
                                                                                                    
                                                                                                    
                                                                                                    
                                                                                                    
                                                                                                    
                                                                                                    
                                                                                                    
                                                                                                    
                                                                                                    
                                                                                                    
                                                                                                    
                                                                                                    
                                                                                                    
                                                                                                    
                                                                                                    
                                                                                                    
                                                                                                    
                           
<?xpacket end="w"?></metadata>
<defs>
    <style>
      .cls-1 {
        fill: #ebedf0;
        fill-rule: evenodd;
      }
    </style>
  </defs>
  <path id="catalog" class="cls-1" d="M548,563.991V494.007h65.012v69.984H548Zm20.316-65.883H552.058V559.89h16.253V498.108Zm20.317,0H572.374V559.89h16.254V498.108Zm20.316,0H592.691V559.89h16.253V498.108Zm-8.127,8.2a4.1,4.1,0,1,1-4.063,4.1A4.087,4.087,0,0,1,600.817,506.309Zm4.064,37.179h-8.127v-4.1h8.127v4.1Zm0,8.2h-8.127v-4.1h8.127v4.1Zm-24.38-45.38a4.1,4.1,0,1,1-4.063,4.1A4.086,4.086,0,0,1,580.5,506.309Zm4.063,37.179h-8.126v-4.1h8.126v4.1Zm0,8.2h-8.126v-4.1h8.126v4.1Zm-24.379-45.38a4.1,4.1,0,1,1-4.064,4.1A4.087,4.087,0,0,1,560.185,506.309Zm4.063,37.179h-8.127v-4.1h8.127v4.1Zm0,8.2h-8.127v-4.1h8.127v4.1Z" transform="translate(-548 -494)"/>
</svg>
