<svg xmlns="http://www.w3.org/2000/svg" width="14" height="14" viewBox="0 0 14 14">
  <metadata><?xpacket begin="﻿" id="W5M0MpCehiHzreSzNTczkc9d"?>
<x:xmpmeta xmlns:x="adobe:ns:meta/" x:xmptk="Adobe XMP Core 5.6-c140 79.160451, 2017/05/06-01:08:21        ">
   <rdf:RDF xmlns:rdf="http://www.w3.org/1999/02/22-rdf-syntax-ns#">
      <rdf:Description rdf:about=""/>
   </rdf:RDF>
</x:xmpmeta>
                                                                                                    
                                                                                                    
                                                                                                    
                                                                                                    
                                                                                                    
                                                                                                    
                                                                                                    
                                                                                                    
                                                                                                    
                                                                                                    
                                                                                                    
                                                                                                    
                                                                                                    
                                                                                                    
                                                                                                    
                                                                                                    
                                                                                                    
                                                                                                    
                                                                                                    
                                                                                                    
                           
<?xpacket end="w"?></metadata>
<defs>
    <style>
      .cls-1 {
        fill: #337ab7;
        fill-rule: evenodd;
      }
    </style>
  </defs>
  <path id="circlearrows" class="cls-1" d="M163.2,739.357h-4.624a0.511,0.511,0,0,1-.346-0.916s0.713-.7,1.332-1.3a4.816,4.816,0,0,0-5.82.674,4.557,4.557,0,0,0-1.368,3.573H150a6.841,6.841,0,0,1,2.066-5.213,7.221,7.221,0,0,1,9.207-.7c0.543-.527,1.331-1.277,1.331-1.277a0.508,0.508,0,0,1,.915.35v4.488A0.318,0.318,0,0,1,163.2,739.357ZM150.8,742.644h4.624a0.511,0.511,0,0,1,.347.915s-0.714.7-1.332,1.3a4.816,4.816,0,0,0,5.819-.674,4.555,4.555,0,0,0,1.369-3.574H164a6.848,6.848,0,0,1-2.067,5.213,7.218,7.218,0,0,1-9.207.694c-0.544.527-1.33,1.277-1.33,1.277a0.509,0.509,0,0,1-.917-0.35v-4.487A0.319,0.319,0,0,1,150.8,742.644Z" transform="translate(-150 -734)"/>
</svg>
