<svg xmlns="http://www.w3.org/2000/svg" width="14" height="16" viewBox="0 0 14 16">
  <metadata><?xpacket begin="﻿" id="W5M0MpCehiHzreSzNTczkc9d"?>
<x:xmpmeta xmlns:x="adobe:ns:meta/" x:xmptk="Adobe XMP Core 5.6-c138 79.159824, 2016/09/14-01:09:01        ">
   <rdf:RDF xmlns:rdf="http://www.w3.org/1999/02/22-rdf-syntax-ns#">
      <rdf:Description rdf:about=""/>
   </rdf:RDF>
</x:xmpmeta>
                                                                                                    
                                                                                                    
                                                                                                    
                                                                                                    
                                                                                                    
                                                                                                    
                                                                                                    
                                                                                                    
                                                                                                    
                                                                                                    
                                                                                                    
                                                                                                    
                                                                                                    
                                                                                                    
                                                                                                    
                                                                                                    
                                                                                                    
                                                                                                    
                                                                                                    
                                                                                                    
                           
<?xpacket end="w"?></metadata>
<defs>
    <style>
      .cls-1 {
        fill: #c5cbd5;
        fill-rule: evenodd;
      }
    </style>
  </defs>
  <path id="Rounded_Rectangle_1_copy" data-name="Rounded Rectangle 1 copy" class="cls-1" d="M1259,670h-7a2,2,0,0,1-2-2v-9a2,2,0,0,1,2-2h7a2,2,0,0,1,2,2v9A2,2,0,0,1,1259,670Zm-6.5-7h4a0.5,0.5,0,0,0,0-1h-4A0.5,0.5,0,0,0,1252.5,663Zm6-4h-6a0.5,0.5,0,0,0,0,1h6A0.5,0.5,0,0,0,1258.5,659Zm-8.5-3a1,1,0,0,0-1,1v10a2,2,0,0,1-2-2v-9a2,2,0,0,1,2-2h7a2,2,0,0,1,2,2h-8Z" transform="translate(-1247 -654)"/>
</svg>
