<svg xmlns="http://www.w3.org/2000/svg" width="15" height="16" viewBox="0 0 15 16">
  <metadata><?xpacket begin="﻿" id="W5M0MpCehiHzreSzNTczkc9d"?>
<x:xmpmeta xmlns:x="adobe:ns:meta/" x:xmptk="Adobe XMP Core 5.6-c140 79.160451, 2017/05/06-01:08:21        ">
   <rdf:RDF xmlns:rdf="http://www.w3.org/1999/02/22-rdf-syntax-ns#">
      <rdf:Description rdf:about=""/>
   </rdf:RDF>
</x:xmpmeta>
                                                                                                    
                                                                                                    
                                                                                                    
                                                                                                    
                                                                                                    
                                                                                                    
                                                                                                    
                                                                                                    
                                                                                                    
                                                                                                    
                                                                                                    
                                                                                                    
                                                                                                    
                                                                                                    
                                                                                                    
                                                                                                    
                                                                                                    
                                                                                                    
                                                                                                    
                                                                                                    
                           
<?xpacket end="w"?></metadata>
<defs>
    <style>
      .cls-1 {
        fill: #428bca;
        fill-rule: evenodd;
      }
    </style>
  </defs>
  <path id="delete" class="cls-1" d="M1282,410l-0.45,10.655a1.355,1.355,0,0,1-1.43,1.345h-9.24a1.355,1.355,0,0,1-1.43-1.35L1269,410a0.988,0.988,0,0,0,.74,0H1269a1,1,0,0,1,0-2h2a2.852,2.852,0,0,1,.33-1.65,1.293,1.293,0,0,1,.92-0.35H1279c1.1,0,1,.771,1,2h2A1,1,0,0,1,1282,410Zm-4,10h1v-8h-1v8Zm-3,0h1v-8h-1v8Zm-3,0h1v-8h-1v8Zm6-13h-5v1h5v-1Z" transform="translate(-1268 -406)"/>
</svg>
