<svg xmlns="http://www.w3.org/2000/svg" width="79" height="79" viewBox="0 0 79 79">
  <metadata><?xpacket begin="﻿" id="W5M0MpCehiHzreSzNTczkc9d"?>
<x:xmpmeta xmlns:x="adobe:ns:meta/" x:xmptk="Adobe XMP Core 5.6-c140 79.160451, 2017/05/06-01:08:21        ">
   <rdf:RDF xmlns:rdf="http://www.w3.org/1999/02/22-rdf-syntax-ns#">
      <rdf:Description rdf:about=""/>
   </rdf:RDF>
</x:xmpmeta>
                                                                                                    
                                                                                                    
                                                                                                    
                                                                                                    
                                                                                                    
                                                                                                    
                                                                                                    
                                                                                                    
                                                                                                    
                                                                                                    
                                                                                                    
                                                                                                    
                                                                                                    
                                                                                                    
                                                                                                    
                                                                                                    
                                                                                                    
                                                                                                    
                                                                                                    
                                                                                                    
                           
<?xpacket end="w"?></metadata>
<defs>
    <style>
      .cls-1 {
        fill: #ebedf0;
        fill-rule: evenodd;
      }
    </style>
  </defs>
  <path id="dop" class="cls-1" d="M1022.06,795.857H1029v4.629h-6.95A11.568,11.568,0,0,1,1012.8,819H950v-4.629h6.944a2.5,2.5,0,0,0,1.2-1.432,14.229,14.229,0,0,0,0-11.024,2.5,2.5,0,0,0-1.2-1.432H950v-4.629h6.95a11.568,11.568,0,0,1,9.252-18.518h9.873c-0.086-.1-0.172-0.209-0.257-0.316a24.152,24.152,0,0,1-4.647-10.876c-1.454-8.726,3.369-16.892,11.541-16.892a11.979,11.979,0,0,1,4.708.983A11.589,11.589,0,0,1,998.913,740v4.63a6.955,6.955,0,0,0-6.795,5.516,11.935,11.935,0,0,1,4.481-.887c7.951,0,13.041,7.918,11.541,16.892a24.007,24.007,0,0,1-4.9,11.192H1029v4.63h-6.94a2.492,2.492,0,0,0-1.2,1.432,14.123,14.123,0,0,0,0,11.024A2.492,2.492,0,0,0,1022.06,795.857Zm-18.49-30.471c0.94-5.595-1.6-11.5-6.971-11.5-3.725,0-5.778,2.718-6.944,3.665-1.168-.949-3.22-3.665-6.944-3.665-5.18,0-7.949,5.656-6.975,11.5,1.174,7.045,5.533,11.953,8.711,11.953a4.864,4.864,0,0,0,3.434-2.012l1.774-2.118,1.774,2.118a4.864,4.864,0,0,0,3.434,2.012C998.041,777.339,1002.4,772.431,1003.57,765.386Zm12.85,16.581H966.2a6.945,6.945,0,0,0,0,13.89h50.219A19.2,19.2,0,0,1,1016.42,781.967Zm-3.62,18.519H962.579a19.1,19.1,0,0,1,0,13.888H1012.8A6.944,6.944,0,0,0,1012.8,800.486Zm-39.347,4.629h37.037v4.63H973.453v-4.63ZM968.515,786.6h37.345v4.629H968.515V786.6Z" transform="translate(-950 -740)"/>
</svg>
