<svg xmlns="http://www.w3.org/2000/svg" width="72" height="72" viewBox="0 0 72 72">
  <metadata><?xpacket begin="﻿" id="W5M0MpCehiHzreSzNTczkc9d"?>
<x:xmpmeta xmlns:x="adobe:ns:meta/" x:xmptk="Adobe XMP Core 5.6-c140 79.160451, 2017/05/06-01:08:21        ">
   <rdf:RDF xmlns:rdf="http://www.w3.org/1999/02/22-rdf-syntax-ns#">
      <rdf:Description rdf:about=""/>
   </rdf:RDF>
</x:xmpmeta>
                                                                                                    
                                                                                                    
                                                                                                    
                                                                                                    
                                                                                                    
                                                                                                    
                                                                                                    
                                                                                                    
                                                                                                    
                                                                                                    
                                                                                                    
                                                                                                    
                                                                                                    
                                                                                                    
                                                                                                    
                                                                                                    
                                                                                                    
                                                                                                    
                                                                                                    
                                                                                                    
                           
<?xpacket end="w"?></metadata>
<defs>
    <style>
      .cls-1 {
        fill: #ebedf0;
        fill-rule: evenodd;
      }
    </style>
  </defs>
  <path id="encec" class="cls-1" d="M613.574,757.441V749h-2.109c-11.176,0-19.53,2.683-25.453,8.184-5.924-5.5-14.278-8.184-25.453-8.184h-2.11v8.437h-8.437v59.346h22.066a11.937,11.937,0,0,1,5.594,1.993,16.735,16.735,0,0,0,16.679,0,11.937,11.937,0,0,1,5.594-1.993h22.066V757.441h-8.437Zm0,42.471V761.66h4.219v42.471H599.945a27.538,27.538,0,0,0-3.166.186,29.2,29.2,0,0,1,14.686-4.4h2.109Zm-25.453-38.894c4.792-4.888,11.761-7.437,21.234-7.76v42.514c-7.873.591-15.327,4.476-21.234,9.665V761.018Zm-25.453-7.76c9.473,0.323,16.443,2.874,21.234,7.762v44.42c-5.978-5.252-13.424-9.082-21.234-9.668V753.258Zm-4.219,8.4v38.252h2.11a29.2,29.2,0,0,1,14.685,4.4,27.538,27.538,0,0,0-3.166-.186H554.23V761.66h4.219Zm41.5,50.908c-2.248,0-4.7.815-7.712,2.564a12.521,12.521,0,0,1-12.443,0c-3.013-1.749-5.463-2.564-7.712-2.564H554.23V808.35h17.848a23.5,23.5,0,0,1,13.934,4.644,23.631,23.631,0,0,1,13.933-4.644h17.848v4.218H599.945Z" transform="translate(-550 -749)"/>
</svg>
