<svg xmlns="http://www.w3.org/2000/svg" width="9" height="8" viewBox="0 0 9 8">
  <metadata><?xpacket begin="﻿" id="W5M0MpCehiHzreSzNTczkc9d"?>
<x:xmpmeta xmlns:x="adobe:ns:meta/" x:xmptk="Adobe XMP Core 5.6-c138 79.159824, 2016/09/14-01:09:01        ">
   <rdf:RDF xmlns:rdf="http://www.w3.org/1999/02/22-rdf-syntax-ns#">
      <rdf:Description rdf:about=""/>
   </rdf:RDF>
</x:xmpmeta>
                                                                                                    
                                                                                                    
                                                                                                    
                                                                                                    
                                                                                                    
                                                                                                    
                                                                                                    
                                                                                                    
                                                                                                    
                                                                                                    
                                                                                                    
                                                                                                    
                                                                                                    
                                                                                                    
                                                                                                    
                                                                                                    
                                                                                                    
                                                                                                    
                                                                                                    
                                                                                                    
                           
<?xpacket end="w"?></metadata>
<defs>
    <style>
      .cls-1 {
        fill: #fff;
        fill-rule: evenodd;
      }
    </style>
  </defs>
  <path class="cls-1" d="M731,629.531a0.431,0.431,0,0,0-.024-0.087,0.121,0.121,0,0,1,0-.018h0v0l-1-2.187-0.01-.015a0.154,0.154,0,0,0-.008-0.019,0.338,0.338,0,0,0-.027-0.036,0.317,0.317,0,0,0-.028-0.036,0.29,0.29,0,0,0-.049-0.043,0.269,0.269,0,0,0-.033-0.026,0.311,0.311,0,0,0-.064-0.03,0.331,0.331,0,0,0-.033-0.015,0.419,0.419,0,0,0-.107-0.015h-5.866a0.379,0.379,0,0,0-.1.014c-0.012,0-.022.009-0.034,0.013a0.441,0.441,0,0,0-.059.026c-0.012.007-.022,0.017-0.033,0.024a0.445,0.445,0,0,0-.048.038c-0.01.01-.018,0.023-0.027,0.034a0.312,0.312,0,0,0-.032.04l-1.351,2.187c0,0.009-.008.018-0.012,0.027s-0.011.014-.014,0.021a0.233,0.233,0,0,0-.007.025,0.613,0.613,0,0,0-.018.061c0,0.016-.006.032-0.008,0.049a0.414,0.414,0,0,0,0,.061,0.4,0.4,0,0,0,0,.05,0.38,0.38,0,0,0,.015.058,0.414,0.414,0,0,0,.019.049,0.177,0.177,0,0,0,.006.017,0.309,0.309,0,0,0,.026.037c0.007,0.01.011,0.021,0.019,0.031l4.085,4.994a0.37,0.37,0,0,0,.282.144h0.022a0.357,0.357,0,0,0,.1-0.016l0.028-.01a0.4,0.4,0,0,0,.072-0.035l0.023-.014a0.4,0.4,0,0,0,.074-0.069l4.127-4.994a0.092,0.092,0,0,0,.013-0.021,0.252,0.252,0,0,0,.021-0.025c0.006-.01.009-0.021,0.014-0.031a0.3,0.3,0,0,0,.018-0.041,0.5,0.5,0,0,0,.018-0.063c0-.015.006-0.028,0.008-0.043a0.545,0.545,0,0,0,0-.07C731,629.557,731,629.544,731,629.531Z" transform="translate(-722 -627)"/>
</svg>
