<svg xmlns="http://www.w3.org/2000/svg" width="18" height="12" viewBox="0 0 18 12">
  <metadata><?xpacket begin="﻿" id="W5M0MpCehiHzreSzNTczkc9d"?>
<x:xmpmeta xmlns:x="adobe:ns:meta/" x:xmptk="Adobe XMP Core 5.6-c138 79.159824, 2016/09/14-01:09:01        ">
   <rdf:RDF xmlns:rdf="http://www.w3.org/1999/02/22-rdf-syntax-ns#">
      <rdf:Description rdf:about=""/>
   </rdf:RDF>
</x:xmpmeta>
                                                                                                    
                                                                                                    
                                                                                                    
                                                                                                    
                                                                                                    
                                                                                                    
                                                                                                    
                                                                                                    
                                                                                                    
                                                                                                    
                                                                                                    
                                                                                                    
                                                                                                    
                                                                                                    
                                                                                                    
                                                                                                    
                                                                                                    
                                                                                                    
                                                                                                    
                                                                                                    
                           
<?xpacket end="w"?></metadata>
<defs>
    <style>
      .cls-1 {
        fill: #428bca;
        fill-rule: evenodd;
      }
    </style>
  </defs>
  <path id="Forma_1" data-name="Forma 1" class="cls-1" d="M799.721,960.263c-0.2-.215-4.052-5.262-9.1-5.262-5.17,0-8.342,5.213-8.475,5.434a1.123,1.123,0,0,0,0,1.129c0.133,0.222,3.3,5.435,8.475,5.435,5.051,0,8.9-5.048,9.1-5.262A1.1,1.1,0,0,0,799.721,960.263Zm-10.274-1.435a1.684,1.684,0,1,1-1.464,1.67A1.578,1.578,0,0,1,789.447,958.828Zm1.171,6.166c-3.316,0-5.734-2.777-6.636-4a11.575,11.575,0,0,1,3.066-2.9,4.709,4.709,0,0,0-.414,1.941,3.76,3.76,0,1,0,7.456,0,4.642,4.642,0,0,0-.7-2.478c2.277,0.852,3.31,2.486,4.369,3.439C796.281,962.33,793.915,964.994,790.618,964.994Z" transform="translate(-782 -955)"/>
</svg>
