<svg xmlns="http://www.w3.org/2000/svg" width="9.34" height="17.41" viewBox="0 0 9.34 17.41">
  <metadata><?xpacket begin="﻿" id="W5M0MpCehiHzreSzNTczkc9d"?>
<x:xmpmeta xmlns:x="adobe:ns:meta/" x:xmptk="Adobe XMP Core 5.6-c140 79.160451, 2017/05/06-01:08:21        ">
   <rdf:RDF xmlns:rdf="http://www.w3.org/1999/02/22-rdf-syntax-ns#">
      <rdf:Description rdf:about=""/>
   </rdf:RDF>
</x:xmpmeta>
                                                                                                    
                                                                                                    
                                                                                                    
                                                                                                    
                                                                                                    
                                                                                                    
                                                                                                    
                                                                                                    
                                                                                                    
                                                                                                    
                                                                                                    
                                                                                                    
                                                                                                    
                                                                                                    
                                                                                                    
                                                                                                    
                                                                                                    
                                                                                                    
                                                                                                    
                                                                                                    
                           
<?xpacket end="w"?></metadata>
<defs>
    <style>
      .cls-1 {
        fill: #fff;
        fill-rule: evenodd;
      }
    </style>
  </defs>
  <path id="fb" class="cls-1" d="M1252.45,1129.79h-2.24a3.944,3.944,0,0,0-4.14,4.28v1.97h-2.26a0.356,0.356,0,0,0-.35.36v2.86a0.354,0.354,0,0,0,.35.35h2.26v7.22a0.356,0.356,0,0,0,.35.36h2.94a0.356,0.356,0,0,0,.35-0.36v-7.22h2.64a0.354,0.354,0,0,0,.35-0.35v-2.86a0.358,0.358,0,0,0-.35-0.36h-2.64v-1.67a1,1,0,0,1,1.23-1.21h1.51a0.359,0.359,0,0,0,.36-0.36v-2.65A0.359,0.359,0,0,0,1252.45,1129.79Z" transform="translate(-1243.47 -1129.78)"/>
</svg>
