<svg xmlns="http://www.w3.org/2000/svg" width="14" height="13" viewBox="0 0 14 13">
  <metadata><?xpacket begin="﻿" id="W5M0MpCehiHzreSzNTczkc9d"?>
<x:xmpmeta xmlns:x="adobe:ns:meta/" x:xmptk="Adobe XMP Core 5.6-c138 79.159824, 2016/09/14-01:09:01        ">
   <rdf:RDF xmlns:rdf="http://www.w3.org/1999/02/22-rdf-syntax-ns#">
      <rdf:Description rdf:about=""/>
   </rdf:RDF>
</x:xmpmeta>
                                                                                                    
                                                                                                    
                                                                                                    
                                                                                                    
                                                                                                    
                                                                                                    
                                                                                                    
                                                                                                    
                                                                                                    
                                                                                                    
                                                                                                    
                                                                                                    
                                                                                                    
                                                                                                    
                                                                                                    
                                                                                                    
                                                                                                    
                                                                                                    
                                                                                                    
                                                                                                    
                           
<?xpacket end="w"?></metadata>
<defs>
    <style>
      .cls-1 {
        fill-rule: evenodd;
      }
    </style>
  </defs>
  <path id="Forma_1_copy_4" data-name="Forma 1 copy 4" class="cls-1" d="M198.982,412.419a0.656,0.656,0,0,1-.059.208,0.412,0.412,0,0,1-.392.373H185.77a0.772,0.772,0,0,1-.612-0.294,0.727,0.727,0,0,1-.156-0.459h0V400.8a0.81,0.81,0,0,1,.82-0.8H192l2,2h4c0.594,0.05,1,.16,1,0.6v1.95h0c0,0.009,0,.016,0,0.025v7.774ZM191,402h-4a24.8,24.8,0,0,0,0,3,11.6,11.6,0,0,1,1-2h4.067Z" transform="translate(-185 -400)"/>
</svg>
