<svg xmlns="http://www.w3.org/2000/svg" width="16" height="13" viewBox="0 0 16 13">
  <metadata><?xpacket begin="﻿" id="W5M0MpCehiHzreSzNTczkc9d"?>
<x:xmpmeta xmlns:x="adobe:ns:meta/" x:xmptk="Adobe XMP Core 5.6-c138 79.159824, 2016/09/14-01:09:01        ">
   <rdf:RDF xmlns:rdf="http://www.w3.org/1999/02/22-rdf-syntax-ns#">
      <rdf:Description rdf:about=""/>
   </rdf:RDF>
</x:xmpmeta>
                                                                                                    
                                                                                                    
                                                                                                    
                                                                                                    
                                                                                                    
                                                                                                    
                                                                                                    
                                                                                                    
                                                                                                    
                                                                                                    
                                                                                                    
                                                                                                    
                                                                                                    
                                                                                                    
                                                                                                    
                                                                                                    
                                                                                                    
                                                                                                    
                                                                                                    
                                                                                                    
                           
<?xpacket end="w"?></metadata>
<defs>
    <style>
      .cls-1 {
        fill: #428bca;
        fill-rule: evenodd;
      }
    </style>
  </defs>
  <path id="Forma_1_copy_5" data-name="Forma 1 copy 5" class="cls-1" d="M143.7,271.471a0.733,0.733,0,0,1-.706.529h-12.25a0.73,0.73,0,0,1-.587-0.294,0.745,0.745,0,0,1-.15-0.459h0V259.8a0.793,0.793,0,0,1,.787-0.8H137l2,2,3.16-.05c0.57,0.05,1.84.062,1.84,1.05v6c0.419,0,2,.034,2,0.537v0.051Zm-12.5-1.349a4.6,4.6,0,0,0-.551-0.072,0.116,0.116,0,0,1-.018,0l-0.046.744ZM142,263h-4l-2-2h-4v8.243l0.961-1.045L134,268h8v-5C142.02,263.205,142.025,262.745,142,263Z" transform="translate(-130 -259)"/>
</svg>
