<svg xmlns="http://www.w3.org/2000/svg" width="77" height="73" viewBox="0 0 77 73">
  <metadata><?xpacket begin="﻿" id="W5M0MpCehiHzreSzNTczkc9d"?>
<x:xmpmeta xmlns:x="adobe:ns:meta/" x:xmptk="Adobe XMP Core 5.6-c140 79.160451, 2017/05/06-01:08:21        ">
   <rdf:RDF xmlns:rdf="http://www.w3.org/1999/02/22-rdf-syntax-ns#">
      <rdf:Description rdf:about=""/>
   </rdf:RDF>
</x:xmpmeta>
                                                                                                    
                                                                                                    
                                                                                                    
                                                                                                    
                                                                                                    
                                                                                                    
                                                                                                    
                                                                                                    
                                                                                                    
                                                                                                    
                                                                                                    
                                                                                                    
                                                                                                    
                                                                                                    
                                                                                                    
                                                                                                    
                                                                                                    
                                                                                                    
                                                                                                    
                                                                                                    
                           
<?xpacket end="w"?></metadata>
<defs>
    <style>
      .cls-1 {
        fill: #ebedf0;
        fill-rule: evenodd;
      }
    </style>
  </defs>
  <path id="free" class="cls-1" d="M1010.36,530.522H946V526.13h6.627a2.371,2.371,0,0,0,1.149-1.359,13.416,13.416,0,0,0,0-10.458,2.371,2.371,0,0,0-1.149-1.359H946v-4.392h2.215A10.879,10.879,0,0,1,946,501.974a11.026,11.026,0,0,1,11.046-10.98h64.365v4.392h-6.63a2.34,2.34,0,0,0-1.15,1.359,13.427,13.427,0,0,0,0,10.458,2.34,2.34,0,0,0,1.15,1.359h6.63v4.392h-2.22a10.883,10.883,0,0,1,2.22,6.588A11.03,11.03,0,0,1,1010.36,530.522Zm-0.96-35.138H957.045a6.589,6.589,0,1,0,0,13.178H1009.4A17.991,17.991,0,0,1,1009.4,495.384Zm0.96,17.57H958.007a18.026,18.026,0,0,1,0,13.176h52.353A6.588,6.588,0,1,0,1010.36,512.954Zm-42.268,4.392h40.058v4.392H968.092v-4.392Zm-8.837-17.568h40.059v4.392H959.255v-4.392ZM973.9,535.9l24.23,4.92v6.119l22.48-4.122,2.38,6.223-32,14.605-19-5.643L959.9,559.161V564H947.633V539.028h10.016Zm-14,18.971,12.448-1.2,18.115,5.395,23.86-10.529-18.33,3.315-19.669-3.682,1.014-4.147,16.519,2.915v-2.784l-20.154-3.9L959.9,543v11.867Zm-4.276,4.773V543.3h-3.712v16.439h3.712v-0.1Z" transform="translate(-946 -491)"/>
</svg>
