<svg xmlns="http://www.w3.org/2000/svg" width="14.375" height="13.75" viewBox="0 0 14.375 13.75">
  <path d="M155.82,577.1a3846.207,3846.207,0,0,0-.937,3.748,1.418,1.418,0,0,1-1.226,2.094h-7.814v-7.5s2.262-2.047,2.989-2.756a2.872,2.872,0,0,0,.8-1.519,1.924,1.924,0,0,1,.15-0.664,0.783,0.783,0,0,1,.478-0.358,1.624,1.624,0,0,1,1.084.16,2.427,2.427,0,0,1,.826,2.854l-0.494,1.346s3.535-.013,3.611,0A1.429,1.429,0,0,1,155.82,577.1Zm-11.383,6.779h-1.875a0.469,0.469,0,0,1-.469-0.468v-8.433a0.469,0.469,0,0,1,.469-0.468h1.875a0.469,0.469,0,0,1,.469.468v8.433A0.469,0.469,0,0,1,144.437,583.882Z" transform="translate(-142.094 -570.125)"/>
</svg>
