<svg xmlns="http://www.w3.org/2000/svg" width="84" height="84" viewBox="0 0 84 84">
  <metadata><?xpacket begin="﻿" id="W5M0MpCehiHzreSzNTczkc9d"?>
<x:xmpmeta xmlns:x="adobe:ns:meta/" x:xmptk="Adobe XMP Core 5.6-c140 79.160451, 2017/05/06-01:08:21        ">
   <rdf:RDF xmlns:rdf="http://www.w3.org/1999/02/22-rdf-syntax-ns#">
      <rdf:Description rdf:about=""/>
   </rdf:RDF>
</x:xmpmeta>
                                                                                                    
                                                                                                    
                                                                                                    
                                                                                                    
                                                                                                    
                                                                                                    
                                                                                                    
                                                                                                    
                                                                                                    
                                                                                                    
                                                                                                    
                                                                                                    
                                                                                                    
                                                                                                    
                                                                                                    
                                                                                                    
                                                                                                    
                                                                                                    
                                                                                                    
                                                                                                    
                           
<?xpacket end="w"?></metadata>
<defs>
    <style>
      .cls-1 {
        fill: #ebedf0;
        fill-rule: evenodd;
      }
    </style>
  </defs>
  <path id="new" class="cls-1" d="M215.92,290.725L218.741,306l-14.844-6.63L189.053,306l1.813-9.818H153.852a9.856,9.856,0,0,1-9.845-9.846V229.4a7.392,7.392,0,0,1,7.383-7.385h47.092v9.847h4.923v30.718l0.492-1,7.421,15.039L228,279.028Zm-66.991-4.385a4.928,4.928,0,0,0,4.923,4.923V236.779H151.39a7.35,7.35,0,0,1-2.461-.423V286.34Zm44.631-59.407H151.39a2.462,2.462,0,0,0,0,4.924h42.17v-4.924Zm4.922,9.846H158.774v54.484h33l0.1-.543-11.993-11.692,16.594-2.412,2.006-4.066V236.779Zm9.568,44.338L203.9,272.7l-4.153,8.414-9.284,1.35,6.733,6.564-1.6,8.661,8.3-3.709,8.3,3.709-1.6-8.667,6.772-6.558ZM163.7,241.7H193.56v4.924H163.7V241.7Z" transform="translate(-144 -222)"/>
</svg>
