<svg xmlns="http://www.w3.org/2000/svg" width="15.5" height="10.938" viewBox="0 0 15.5 10.938">
  <path d="M156.907,541.93a0.277,0.277,0,0,1-.193.075H146.288a0.273,0.273,0,0,1-.192-0.075,0.228,0.228,0,0,1-.082-0.176v-1.509a0.231,0.231,0,0,1,.082-0.177,0.273,0.273,0,0,1,.192-0.075h10.426a0.277,0.277,0,0,1,.193.075,0.234,0.234,0,0,1,.081.177v1.509A0.23,0.23,0,0,1,156.907,541.93Zm-0.193-3.925H146.288a0.273,0.273,0,0,1-.192-0.075,0.228,0.228,0,0,1-.082-0.176v-1.509a0.23,0.23,0,0,1,.082-0.177,0.273,0.273,0,0,1,.192-0.075h10.426a0.277,0.277,0,0,1,.193.075,0.232,0.232,0,0,1,.081.177v1.509a0.23,0.23,0,0,1-.081.176A0.277,0.277,0,0,1,156.714,538.005Zm0-4H146.288a0.277,0.277,0,0,1-.192-0.074,0.231,0.231,0,0,1-.082-0.177v-1.509a0.231,0.231,0,0,1,.082-0.177,0.273,0.273,0,0,1,.192-0.075h10.426a0.277,0.277,0,0,1,.193.075,0.234,0.234,0,0,1,.081.177v1.509a0.234,0.234,0,0,1-.081.177A0.281,0.281,0,0,1,156.714,534.005ZM143,542.476a1.473,1.473,0,0,1-1.069-.43,1.465,1.465,0,0,1,0-2.093,1.541,1.541,0,0,1,2.138,0,1.465,1.465,0,0,1,0,2.093A1.471,1.471,0,0,1,143,542.476Zm0-4a1.473,1.473,0,0,1-1.069-.43,1.465,1.465,0,0,1,0-2.093,1.541,1.541,0,0,1,2.138,0,1.465,1.465,0,0,1,0,2.093A1.471,1.471,0,0,1,143,538.476Zm0-4a1.474,1.474,0,0,1-1.069-.431,1.465,1.465,0,0,1,0-2.093,1.541,1.541,0,0,1,2.138,0,1.465,1.465,0,0,1,0,2.093A1.472,1.472,0,0,1,143,534.477Z" transform="translate(-141.5 -531.531)"/>
</svg>
