<svg xmlns="http://www.w3.org/2000/svg" width="75" height="70" viewBox="0 0 75 70">
  <metadata><?xpacket begin="﻿" id="W5M0MpCehiHzreSzNTczkc9d"?>
<x:xmpmeta xmlns:x="adobe:ns:meta/" x:xmptk="Adobe XMP Core 5.6-c140 79.160451, 2017/05/06-01:08:21        ">
   <rdf:RDF xmlns:rdf="http://www.w3.org/1999/02/22-rdf-syntax-ns#">
      <rdf:Description rdf:about=""/>
   </rdf:RDF>
</x:xmpmeta>
                                                                                                    
                                                                                                    
                                                                                                    
                                                                                                    
                                                                                                    
                                                                                                    
                                                                                                    
                                                                                                    
                                                                                                    
                                                                                                    
                                                                                                    
                                                                                                    
                                                                                                    
                                                                                                    
                                                                                                    
                                                                                                    
                                                                                                    
                                                                                                    
                                                                                                    
                                                                                                    
                           
<?xpacket end="w"?></metadata>
<defs>
    <style>
      .cls-1 {
        fill: #ebedf0;
        fill-rule: evenodd;
      }
    </style>
  </defs>
  <path id="podpiska" class="cls-1" d="M224.993,553.063A10.973,10.973,0,0,1,214.009,564h-64v-4.375h6.59a2.363,2.363,0,0,0,1.142-1.353,13.387,13.387,0,0,0,0-10.418A2.368,2.368,0,0,0,156.6,546.5h-6.59v-4.375h2.2a10.85,10.85,0,0,1-2.2-6.562,10.973,10.973,0,0,1,10.984-10.938h64V529H218.4a2.364,2.364,0,0,0-1.142,1.354,13.387,13.387,0,0,0,0,10.418,2.363,2.363,0,0,0,1.142,1.353h6.59V546.5h-2.2A10.85,10.85,0,0,1,224.993,553.063ZM213.053,529H160.994a6.563,6.563,0,1,0,0,13.126h52.059A17.988,17.988,0,0,1,213.053,529Zm0.956,17.5H161.95a17.972,17.972,0,0,1,0,13.125h52.059A6.563,6.563,0,1,0,214.009,546.5Zm-42.03,4.375h39.834v4.375H171.979v-4.375Zm-8.787-17.5h39.834v4.375H163.192v-4.375Zm53.014-26.249h-8.787v2.524l-5.894,6.226h-16.22V511.5h14.324l3.4-3.588v-0.787H160.5l-10.487-4.974v-3.178L160.5,494h55.709v4.375h8.787v4.375h-8.787v4.375Zm-53.015-8.75h-1.7l-4.613,2.187,4.613,2.188h1.7v-4.375Zm39.835,0H167.584v4.375h35.442v-4.375Zm8.787,0h-4.394v4.375h4.394v-4.375Z" transform="translate(-150 -494)"/>
</svg>
