<svg xmlns="http://www.w3.org/2000/svg" width="82" height="82" viewBox="0 0 82 82">
  <metadata><?xpacket begin="﻿" id="W5M0MpCehiHzreSzNTczkc9d"?>
<x:xmpmeta xmlns:x="adobe:ns:meta/" x:xmptk="Adobe XMP Core 5.6-c140 79.160451, 2017/05/06-01:08:21        ">
   <rdf:RDF xmlns:rdf="http://www.w3.org/1999/02/22-rdf-syntax-ns#">
      <rdf:Description rdf:about=""/>
   </rdf:RDF>
</x:xmpmeta>
                                                                                                    
                                                                                                    
                                                                                                    
                                                                                                    
                                                                                                    
                                                                                                    
                                                                                                    
                                                                                                    
                                                                                                    
                                                                                                    
                                                                                                    
                                                                                                    
                                                                                                    
                                                                                                    
                                                                                                    
                                                                                                    
                                                                                                    
                                                                                                    
                                                                                                    
                                                                                                    
                           
<?xpacket end="w"?></metadata>
<defs>
    <style>
      .cls-1 {
        fill: #ebedf0;
        fill-rule: evenodd;
      }
    </style>
  </defs>
  <path id="poisk" class="cls-1" d="M229,827.6l-3.4,3.4-12.91-12.91a16.743,16.743,0,0,1-10.073,3.356h-46A9.628,9.628,0,0,1,147,811.829v-55.62A7.222,7.222,0,0,1,154.213,749h46v9.618h4.808v29.344a16.823,16.823,0,0,1,11.07,26.732Zm-77.192-15.771a4.814,4.814,0,0,0,4.809,4.808V763.422h-2.4a7.206,7.206,0,0,1-2.405-.413v48.82Zm43.6-58.024H154.213a2.4,2.4,0,1,0,0,4.809H195.4v-4.809Zm4.809,9.617H161.425v53.215h29.427a16.821,16.821,0,0,1,9.361-28.679V763.422Zm2.4,29.172a12.022,12.022,0,1,0,12.021,12.022A12.035,12.035,0,0,0,202.617,792.594Zm-36.383-24.363H195.4v4.808h-29.17v-4.808Z" transform="translate(-147 -749)"/>
</svg>
