<svg xmlns="http://www.w3.org/2000/svg" width="14.625" height="17.282" viewBox="0 0 14.625 17.282">
  <metadata><?xpacket begin="﻿" id="W5M0MpCehiHzreSzNTczkc9d"?>
<x:xmpmeta xmlns:x="adobe:ns:meta/" x:xmptk="Adobe XMP Core 5.6-c140 79.160451, 2017/05/06-01:08:21        ">
   <rdf:RDF xmlns:rdf="http://www.w3.org/1999/02/22-rdf-syntax-ns#">
      <rdf:Description rdf:about=""/>
   </rdf:RDF>
</x:xmpmeta>
                                                                                                    
                                                                                                    
                                                                                                    
                                                                                                    
                                                                                                    
                                                                                                    
                                                                                                    
                                                                                                    
                                                                                                    
                                                                                                    
                                                                                                    
                                                                                                    
                                                                                                    
                                                                                                    
                                                                                                    
                                                                                                    
                                                                                                    
                                                                                                    
                                                                                                    
                                                                                                    
                           
<?xpacket end="w"?></metadata>
<defs>
    <style>
      .cls-1 {
        fill: #428bca;
        fill-rule: evenodd;
      }
    </style>
  </defs>
  <path id="read" class="cls-1" d="M142.165,488.1a0.39,0.39,0,0,0-.165.322v11.749a0.385,0.385,0,0,0,.192.34l6.77,3.685V491.6l-6.458-3.516A0.328,0.328,0,0,0,142.165,488.1Zm14.289,0a0.324,0.324,0,0,0-.338-0.017l-6.457,3.516v12.6l6.769-3.685a0.384,0.384,0,0,0,.192-0.34V488.423A0.388,0.388,0,0,0,156.454,488.1Zm-1.263-1a0.334,0.334,0,0,0-.468-0.167l-5.413,2.982-5.413-2.981a0.335,0.335,0,0,0-.468.166,0.4,0.4,0,0,0,.153.51l5.57,3.068a0.318,0.318,0,0,0,.158.041,0.315,0.315,0,0,0,.157-0.041l5.571-3.068A0.4,0.4,0,0,0,155.191,487.1Z" transform="translate(-142 -486.906)"/>
</svg>
