<svg xmlns="http://www.w3.org/2000/svg" width="14.63" height="17.282" viewBox="0 0 14.63 17.282">
  <path d="M1150.16,298.1a0.391,0.391,0,0,0-.16.322v11.749a0.38,0.38,0,0,0,.19.34l6.77,3.685V301.6l-6.46-3.516A0.331,0.331,0,0,0,1150.16,298.1Zm14.29,0a0.311,0.311,0,0,0-.33-0.017l-6.46,3.516v12.6l6.77-3.685a0.379,0.379,0,0,0,.19-0.34V298.423A0.375,0.375,0,0,0,1164.45,298.1Zm-1.26-1a0.337,0.337,0,0,0-.47-0.167l-5.41,2.982-5.41-2.981a0.338,0.338,0,0,0-.47.166,0.393,0.393,0,0,0,.15.51l5.57,3.068a0.333,0.333,0,0,0,.32,0l5.57-3.068A0.393,0.393,0,0,0,1163.19,297.1Z" transform="translate(-1150 -296.906)"/>
</svg>
