<svg xmlns="http://www.w3.org/2000/svg" width="15.5" height="10.938" viewBox="0 0 15.5 10.938">
  <path d="M1190,300.522a1.464,1.464,0,0,0-1.07.431,1.465,1.465,0,0,0,0,2.093,1.468,1.468,0,0,0,1.07.431,1.484,1.484,0,0,0,1.07-.431,1.465,1.465,0,0,0,0-2.093A1.48,1.48,0,0,0,1190,300.522Zm13.91,0.546a0.293,0.293,0,0,0-.2-0.075h-10.42a0.252,0.252,0,0,0-.19.075,0.224,0.224,0,0,0-.09.177v1.509a0.224,0.224,0,0,0,.09.177,0.255,0.255,0,0,0,.19.074h10.42a0.3,0.3,0,0,0,.2-0.074,0.247,0.247,0,0,0,.08-0.177v-1.509A0.247,0.247,0,0,0,1203.91,301.068ZM1190,304.522a1.464,1.464,0,0,0-1.07.431,1.465,1.465,0,0,0,0,2.093,1.467,1.467,0,0,0,1.07.43,1.483,1.483,0,0,0,1.07-.43,1.465,1.465,0,0,0,0-2.093A1.48,1.48,0,0,0,1190,304.522Zm13.91,0.546a0.293,0.293,0,0,0-.2-0.075h-10.42a0.252,0.252,0,0,0-.19.075,0.223,0.223,0,0,0-.09.177v1.509a0.224,0.224,0,0,0,.09.177,0.255,0.255,0,0,0,.19.074h10.42a0.3,0.3,0,0,0,.2-0.074,0.247,0.247,0,0,0,.08-0.177v-1.509A0.246,0.246,0,0,0,1203.91,305.068ZM1190,308.522a1.464,1.464,0,0,0-1.07.431,1.465,1.465,0,0,0,0,2.093,1.467,1.467,0,0,0,1.07.43,1.483,1.483,0,0,0,1.07-.43,1.465,1.465,0,0,0,0-2.093A1.48,1.48,0,0,0,1190,308.522Zm13.91,0.546a0.293,0.293,0,0,0-.2-0.075h-10.42a0.252,0.252,0,0,0-.19.075,0.224,0.224,0,0,0-.09.177v1.509a0.221,0.221,0,0,0,.09.176,0.252,0.252,0,0,0,.19.075h10.42a0.293,0.293,0,0,0,.2-0.075,0.243,0.243,0,0,0,.08-0.176v-1.509A0.247,0.247,0,0,0,1203.91,309.068Z" transform="translate(-1188.5 -300.531)"/>
</svg>
