<svg xmlns="http://www.w3.org/2000/svg" width="14.38" height="13.75" viewBox="0 0 14.38 13.75">
  <path d="M1231.44,302.513h-1.88a0.469,0.469,0,0,0-.47.468v8.433a0.469,0.469,0,0,0,.47.468h1.88a0.469,0.469,0,0,0,.47-0.468v-8.433A0.476,0.476,0,0,0,1231.44,302.513Zm10.84,0c-0.07-.013-3.61,0-3.61,0l0.5-1.346a2.423,2.423,0,0,0-.83-2.854,1.614,1.614,0,0,0-1.08-.16,0.773,0.773,0,0,0-.48.358,1.879,1.879,0,0,0-.15.664,2.871,2.871,0,0,1-.8,1.519c-0.73.709-2.99,2.756-2.99,2.756v7.5h7.82a7.754,7.754,0,0,0,1.69-3.968A5.118,5.118,0,0,0,1242.28,302.513Z" transform="translate(-1229.09 -298.125)"/>
</svg>
