<svg xmlns="http://www.w3.org/2000/svg" width="22.78" height="14.75" viewBox="0 0 22.78 14.75">
  <path d="M1284.52,300.707a1.267,1.267,0,0,0-.57-0.412,1.3,1.3,0,0,1-.05.546l-2.87,9.464a0.667,0.667,0,0,1-.34.4,1.047,1.047,0,0,1-.53.148h-8.85a1.262,1.262,0,0,1-1.38-.671,0.4,0.4,0,0,1,.01-0.412,0.416,0.416,0,0,1,.36-0.144h8.33a1.737,1.737,0,0,0,1.23-.331,3.688,3.688,0,0,0,.69-1.472l2.63-8.686a1.359,1.359,0,0,0-.18-1.247,1.254,1.254,0,0,0-1.09-.537h-7.3a2.659,2.659,0,0,0-.48.086v-0.028a1.9,1.9,0,0,0-.45-0.053,0.655,0.655,0,0,0-.35.11,1.133,1.133,0,0,0-.25.226,1.815,1.815,0,0,0-.19.306c-0.06.125-.11,0.24-0.15,0.346s-0.09.217-.14,0.335a3.246,3.246,0,0,1-.16.293,2.293,2.293,0,0,1-.17.2c-0.07.083-.12,0.157-0.17,0.221a0.551,0.551,0,0,0-.08.172,0.47,0.47,0,0,0,.02.254,0.783,0.783,0,0,1,.02.245,3.394,3.394,0,0,1-.26.925,3.993,3.993,0,0,1-.41.81,1.712,1.712,0,0,1-.21.216,0.888,0.888,0,0,0-.21.292,0.444,0.444,0,0,0,0,.269,1.247,1.247,0,0,1,.02.307,4.468,4.468,0,0,1-.24.862,5.892,5.892,0,0,1-.4.883,2,2,0,0,1-.17.22,1,1,0,0,0-.16.269,0.848,0.848,0,0,0,.01.268,0.843,0.843,0,0,1-.01.288,5.219,5.219,0,0,1-.29.877,5.984,5.984,0,0,1-.43.877,2.263,2.263,0,0,1-.16.226,1.9,1.9,0,0,0-.15.225,0.524,0.524,0,0,0-.08.2,0.364,0.364,0,0,0,.03.187,0.964,0.964,0,0,1,.03.206c-0.01.09-.02,0.208-0.04,0.355s-0.03.233-.03,0.259a1.763,1.763,0,0,0,.02,1.218,2.742,2.742,0,0,0,.95,1.261,2.352,2.352,0,0,0,1.43.512h8.85a1.923,1.923,0,0,0,1.17-.416,1.957,1.957,0,0,0,.73-1.031l2.64-8.687A1.375,1.375,0,0,0,1284.52,300.707Zm-10.2.019,0.2-.614a0.4,0.4,0,0,1,.16-0.215,0.394,0.394,0,0,1,.24-0.091h5.83a0.207,0.207,0,0,1,.19.091,0.23,0.23,0,0,1,.02.215l-0.2.614a0.462,0.462,0,0,1-.16.216,0.394,0.394,0,0,1-.24.091h-5.83a0.2,0.2,0,0,1-.19-0.091A0.232,0.232,0,0,1,1274.32,300.726Zm-0.8,2.455,0.2-.614a0.462,0.462,0,0,1,.16-0.216,0.405,0.405,0,0,1,.25-0.091h5.82a0.227,0.227,0,0,1,.2.091,0.311,0.311,0,0,1,.02.216l-0.21.614a0.378,0.378,0,0,1-.15.215,0.421,0.421,0,0,1-.25.091h-5.83a0.207,0.207,0,0,1-.19-0.091A0.262,0.262,0,0,1,1273.52,303.181Zm-7.58-2.962h3.9a0.781,0.781,0,0,1,0,1.562h-3.9A0.781,0.781,0,0,1,1265.94,300.219Zm-3.16,6.281h3.94a0.781,0.781,0,0,1,0,1.562h-3.94A0.781,0.781,0,0,1,1262.78,306.5Zm3.16-3.156h1.56a0.783,0.783,0,0,1,.78.785v0.023a0.784,0.784,0,0,1-.78.786h-1.56a0.784,0.784,0,0,1-.78-0.786v-0.023A0.783,0.783,0,0,1,1265.94,303.344Z" transform="translate(-1262 -297.344)"/>
</svg>
