<svg xmlns="http://www.w3.org/2000/svg" width="18.53" height="10.68" viewBox="0 0 18.53 10.68">
  <metadata><?xpacket begin="﻿" id="W5M0MpCehiHzreSzNTczkc9d"?>
<x:xmpmeta xmlns:x="adobe:ns:meta/" x:xmptk="Adobe XMP Core 5.6-c140 79.160451, 2017/05/06-01:08:21        ">
   <rdf:RDF xmlns:rdf="http://www.w3.org/1999/02/22-rdf-syntax-ns#">
      <rdf:Description rdf:about=""/>
   </rdf:RDF>
</x:xmpmeta>
                                                                                                    
                                                                                                    
                                                                                                    
                                                                                                    
                                                                                                    
                                                                                                    
                                                                                                    
                                                                                                    
                                                                                                    
                                                                                                    
                                                                                                    
                                                                                                    
                                                                                                    
                                                                                                    
                                                                                                    
                                                                                                    
                                                                                                    
                                                                                                    
                                                                                                    
                                                                                                    
                           
<?xpacket end="w"?></metadata>
<defs>
    <style>
      .cls-1 {
        fill: #fff;
        fill-rule: evenodd;
      }
    </style>
  </defs>
  <path id="vk" class="cls-1" d="M1212.6,1142.8c-0.03-.05-0.05-0.09-0.07-0.12a9.6,9.6,0,0,0-1.84-2.15l-0.02-.02-0.01-.01-0.01-.01h-0.01c-0.41-.4-0.67-0.66-0.78-0.8a0.755,0.755,0,0,1-.14-0.79,7.406,7.406,0,0,1,.87-1.27c0.27-.35.48-0.62,0.63-0.83,1.11-1.5,1.6-2.45,1.45-2.87l-0.06-.09a0.574,0.574,0,0,0-.3-0.16,1.512,1.512,0,0,0-.62-0.03l-2.78.02a0.427,0.427,0,0,0-.19.01c-0.08.02-.13,0.03-0.13,0.03l-0.04.02-0.04.03a0.333,0.333,0,0,0-.11.1,0.95,0.95,0,0,0-.1.17,14.751,14.751,0,0,1-1.03,2.19c-0.24.41-.46,0.75-0.66,1.05a4.393,4.393,0,0,1-.5.65c-0.13.14-.26,0.25-0.36,0.34a0.413,0.413,0,0,1-.26.11,0.936,0.936,0,0,0-.16-0.04,0.728,0.728,0,0,1-.22-0.24,1.222,1.222,0,0,1-.11-0.38,3.148,3.148,0,0,1-.03-0.4c-0.01-.11,0-0.26,0-0.46s0.01-.34.01-0.41c0-.25.01-0.52,0.02-0.81s0.01-.51.02-0.68,0.01-.35.01-0.54a2.512,2.512,0,0,0-.03-0.44,2.811,2.811,0,0,0-.1-0.31,0.677,0.677,0,0,0-.2-0.24,1.262,1.262,0,0,0-.33-0.13,6.372,6.372,0,0,0-1.3-.13,6.279,6.279,0,0,0-2.31.24,1.244,1.244,0,0,0-.36.29c-0.12.14-.14,0.22-0.05,0.23a1.2,1.2,0,0,1,.82.42l0.06,0.12a1.8,1.8,0,0,1,.13.45,4.732,4.732,0,0,1,.09.71,8.227,8.227,0,0,1,0,1.22c-0.03.33-.07,0.6-0.09,0.79a1.881,1.881,0,0,1-.13.45,2.4,2.4,0,0,1-.12.22l-0.05.05a0.751,0.751,0,0,1-.26.05,0.636,0.636,0,0,1-.33-0.14,2.308,2.308,0,0,1-.4-0.38,5.843,5.843,0,0,1-.47-0.66q-0.255-.435-0.54-1.02l-0.15-.28c-0.1-.18-0.23-0.45-0.4-0.79s-0.31-.69-0.44-1.01a0.621,0.621,0,0,0-.23-0.31l-0.05-.03a0.4,0.4,0,0,0-.16-0.08,1.416,1.416,0,0,0-.22-0.07l-2.65.02a0.653,0.653,0,0,0-.55.19l-0.03.05a0.351,0.351,0,0,0-.03.16,0.977,0.977,0,0,0,.05.26c0.39,0.92.81,1.8,1.26,2.65s0.85,1.54,1.19,2.06,0.67,1.01,1.02,1.47,0.58,0.76.69,0.89,0.2,0.22.27,0.29l0.24,0.23a5.193,5.193,0,0,0,.68.56,11.3,11.3,0,0,0,.99.64,5.439,5.439,0,0,0,1.27.52,4.37,4.37,0,0,0,1.41.16h1.12a0.8,0.8,0,0,0,.51-0.21l0.04-.05a0.842,0.842,0,0,0,.07-0.18,1.115,1.115,0,0,0,.03-0.27,4.22,4.22,0,0,1,.06-0.75,1.992,1.992,0,0,1,.17-0.51,1.27,1.27,0,0,1,.21-0.29,0.756,0.756,0,0,1,.16-0.14,0.16,0.16,0,0,1,.08-0.03,0.56,0.56,0,0,1,.54.15,3.1,3.1,0,0,1,.59.56c0.19,0.23.41,0.48,0.66,0.76a4.954,4.954,0,0,0,.68.62l0.19,0.12a2.064,2.064,0,0,0,.51.21,1.036,1.036,0,0,0,.54.05l2.47-.04a1.15,1.15,0,0,0,.57-0.12,0.505,0.505,0,0,0,.24-0.27,0.615,0.615,0,0,0,0-.33A1.456,1.456,0,0,0,1212.6,1142.8Z" transform="translate(-1194.16 -1133.16)"/>
</svg>
