<svg xmlns="http://www.w3.org/2000/svg" width="15" height="16" viewBox="0 0 15 16"><defs><style>.cls-1{fill:#428bca;fill-rule:evenodd}</style></defs><path id="Forma_1" data-name="Forma 1" class="cls-1" d="M979 350c0-1.229.105-2-1-2h-6.75a1.282 1.282 0 0 0-.917.35A2.839 2.839 0 0 0 970 350h-1c.614 2.683-1 2-1 2l.446 10.65a1.358 1.358 0 0 0 1.431 1.35h9.246a1.357 1.357 0 0 0 1.431-1.345L981 352a1.758 1.758 0 0 0-2-2zm-7-1h5v1h-5v-1zm2 5h1v8h-1v-8zm-3 0h1v8h-1v-8zm6 0h1v8h-1v-8zm-9-4h13a1 1 0 0 1 0 2h-13a1 1 0 0 1 0-2z" transform="translate(-967 -348)"/></svg>