<svg xmlns="http://www.w3.org/2000/svg" width="82" height="74" viewBox="0 0 82 74"><defs><style>.cls-1{fill:#ebedf0;fill-rule:evenodd}</style></defs><path id="books" class="cls-1" d="M559.619 232a12 12 0 0 0-12.012 11.963 11.876 11.876 0 0 0 2.408 7.177H538v4.785h7.207a2.591 2.591 0 0 1 1.249 1.481 14.651 14.651 0 0 1 0 11.394 2.587 2.587 0 0 1-1.249 1.481H538v4.783h12.018a11.877 11.877 0 0 0-2.409 7.179 12 12 0 0 0 12.01 11.957h2.4v11.81l9.61-6.38 9.609 6.38V294.2H620v-4.785h-7.207a2.591 2.591 0 0 1-1.249-1.481 14.651 14.651 0 0 1 0-11.394 2.582 2.582 0 0 1 1.249-1.48H620v-4.785h-12.02a11.9 11.9 0 0 0 0-14.356H620v-4.785h-7.207a2.586 2.586 0 0 1-1.249-1.48 14.651 14.651 0 0 1 0-11.394 2.587 2.587 0 0 1 1.249-1.481H620V232h-60.381zm12.012 61.882l-4.8 3.19v-12.439h9.61v12.436zm35.309-4.461h-25.7v-4.785h14.735v-4.785h-33.952v9.57h-2.4a7.179 7.179 0 1 1 0-14.357h47.317a19.679 19.679 0 0 0 0 14.354zm-55.884-19.14a19.676 19.676 0 0 0 0-14.356h10.965v11.645l9.61-6.38 9.609 6.38v-11.648h17.137a7.178 7.178 0 1 1 0 14.356h-47.321zm25.38-23.926v12.275l-4.805-3.19-4.8 3.19v-12.278h9.61zm30.5 4.785h-25.7v-4.785h14.735v-4.785h-33.948v9.57h-2.4a7.179 7.179 0 1 1 0-14.357h47.317a19.679 19.679 0 0 0 0 14.354z" transform="translate(-538 -232)"/></svg>