<svg xmlns="http://www.w3.org/2000/svg" width="22.781" height="14.75" viewBox="0 0 22.781 14.75"><defs><style>.cls-1{fill:#428bca;fill-rule:evenodd}</style></defs><path id="book" class="cls-1" d="M159.691 614.944l-2.636 8.687a1.987 1.987 0 0 1-.734 1.031 1.91 1.91 0 0 1-1.174.416H146.3a2.344 2.344 0 0 1-1.424-.512 2.7 2.7 0 0 1-.954-1.261 1.735 1.735 0 0 1-.019-1.218c0-.026.009-.112.029-.259s.031-.265.038-.355a.533.533 0 0 0-.029-.206.5.5 0 0 1-.029-.187.611.611 0 0 1 .077-.2 2.254 2.254 0 0 1 .158-.225 2.373 2.373 0 0 0 .158-.226 6.294 6.294 0 0 0 .432-.877 5.188 5.188 0 0 0 .288-.877.757.757 0 0 0 0-.288.856.856 0 0 1 0-.268.79.79 0 0 1 .163-.269 1.763 1.763 0 0 0 .163-.22 5.908 5.908 0 0 0 .4-.882 3.915 3.915 0 0 0 .24-.863 1.437 1.437 0 0 0-.024-.307.444.444 0 0 1 0-.269.765.765 0 0 1 .211-.292c.115-.112.185-.184.211-.216a3.963 3.963 0 0 0 .407-.81 3.662 3.662 0 0 0 .264-.925.8.8 0 0 0-.029-.245.627.627 0 0 1-.019-.254.539.539 0 0 1 .086-.172c.045-.064.1-.138.173-.221s.124-.15.163-.2a2.236 2.236 0 0 0 .158-.293c.054-.118.1-.23.144-.335s.092-.221.153-.346a1.642 1.642 0 0 1 .187-.306 1.137 1.137 0 0 1 .254-.226.644.644 0 0 1 .345-.11 1.968 1.968 0 0 1 .456.053l-.01.028a2.712 2.712 0 0 1 .489-.086h7.3a1.263 1.263 0 0 1 1.093.537 1.365 1.365 0 0 1 .172 1.246l-2.627 8.687a3.742 3.742 0 0 1-.685 1.472 1.765 1.765 0 0 1-1.232.331H145.3a.422.422 0 0 0-.364.144.44.44 0 0 0-.01.412 1.269 1.269 0 0 0 1.381.671h8.85a1.067 1.067 0 0 0 .537-.148.7.7 0 0 0 .336-.4l2.876-9.464a1.532 1.532 0 0 0 .048-.546 1.267 1.267 0 0 1 .566.412 1.355 1.355 0 0 1 .171 1.237zm-4.089-1a.426.426 0 0 0 .158-.216l.2-.614a.248.248 0 0 0-.02-.215.207.207 0 0 0-.191-.091h-5.83a.4.4 0 0 0-.245.091.425.425 0 0 0-.158.215l-.2.614a.25.25 0 0 0 .019.216.208.208 0 0 0 .192.091h5.829a.4.4 0 0 0 .244-.093zm-7.062 2.456a.21.21 0 0 0 .192.091h5.83a.4.4 0 0 0 .244-.091.42.42 0 0 0 .158-.215l.2-.614a.254.254 0 0 0-.019-.216.212.212 0 0 0-.192-.091h-5.83a.4.4 0 0 0-.244.091.434.434 0 0 0-.159.216l-.2.614a.251.251 0 0 0 .02.215zm-3.7-1.615h-3.906a.781.781 0 1 1 0-1.562h3.906a.781.781 0 0 1 .004 1.558zm-2.344 5.5a.782.782 0 0 1-.781.782h-3.938a.782.782 0 0 1 0-1.563h3.938a.781.781 0 0 1 .785.777zm-1.558-2.344a.785.785 0 0 1-.786-.785v-.023a.785.785 0 0 1 .786-.785h1.562a.784.784 0 0 1 .785.785v.023a.784.784 0 0 1-.785.785h-1.554z" transform="translate(-137 -610.344)"/></svg>