<svg xmlns="http://www.w3.org/2000/svg" width="25.56" height="32" viewBox="0 0 25.56 32"><defs><style>.cls-1{fill:#f58220;fill-rule:evenodd}</style></defs><path class="cls-1" d="M25.56 27.734L23.72 6.981a.79.79 0 0 0-.8-.722h-3.88a6.26 6.26 0 0 0-12.52 0H2.64a.8.8 0 0 0-.8.722L0 27.734v.073A4.5 4.5 0 0 0 4.73 32h16.1a4.5 4.5 0 0 0 4.73-4.193v-.073zM12.78 1.59a4.671 4.671 0 0 1 4.67 4.67H8.11a4.671 4.671 0 0 1 4.67-4.67zm8.05 28.814H4.73a2.917 2.917 0 0 1-3.14-2.57L3.36 7.85h3.16v2.789a.791.791 0 0 0 .79.795.8.8 0 0 0 .8-.795v-2.79h9.34v2.789a.8.8 0 0 0 .8.795.791.791 0 0 0 .79-.795V7.849h3.16l1.77 19.991a2.917 2.917 0 0 1-3.14 2.56z"/></svg>