<svg xmlns="http://www.w3.org/2000/svg" width="65" height="70" viewBox="0 0 65 70"><defs><style>.cls-1{fill:#ebedf0;fill-rule:evenodd}</style></defs><path id="catalog" class="cls-1" d="M548 563.991v-69.984h65.012v69.984H548zm20.316-65.883h-16.258v61.782h16.253v-61.782zm20.317 0h-16.259v61.782h16.254v-61.782zm20.316 0h-16.258v61.782h16.253v-61.782zm-8.127 8.2a4.1 4.1 0 1 1-4.063 4.1 4.087 4.087 0 0 1 4.058-4.099zm4.064 37.179h-8.127v-4.1h8.127v4.1zm0 8.2h-8.127v-4.1h8.127v4.1zm-24.38-45.38a4.1 4.1 0 1 1-4.063 4.1 4.086 4.086 0 0 1 4.057-4.098zm4.063 37.179h-8.126v-4.1h8.126v4.1zm0 8.2h-8.126v-4.1h8.126v4.1zm-24.379-45.38a4.1 4.1 0 1 1-4.064 4.1 4.087 4.087 0 0 1 4.059-4.097zm4.063 37.179h-8.127v-4.1h8.127v4.1zm0 8.2h-8.127v-4.1h8.127v4.1z" transform="translate(-548 -494)"/></svg>