<svg xmlns="http://www.w3.org/2000/svg" width="14" height="14" viewBox="0 0 14 14"><defs><style>.cls-1{fill:#f58220;fill-rule:evenodd}</style></defs><path id="circlearrows" class="cls-1" d="M163.2 739.357h-4.624a.511.511 0 0 1-.346-.916s.713-.7 1.332-1.3a4.816 4.816 0 0 0-5.82.674 4.557 4.557 0 0 0-1.368 3.573H150a6.841 6.841 0 0 1 2.066-5.213 7.221 7.221 0 0 1 9.207-.7c.543-.527 1.331-1.277 1.331-1.277a.508.508 0 0 1 .915.35v4.488a.318.318 0 0 1-.319.321zm-12.4 3.287h4.624a.511.511 0 0 1 .347.915s-.714.7-1.332 1.3a4.816 4.816 0 0 0 5.819-.674 4.555 4.555 0 0 0 1.369-3.574H164a6.848 6.848 0 0 1-2.067 5.213 7.218 7.218 0 0 1-9.207.694c-.544.527-1.33 1.277-1.33 1.277a.509.509 0 0 1-.917-.35v-4.487a.319.319 0 0 1 .321-.314z" transform="translate(-150 -734)"/></svg>