<svg xmlns="http://www.w3.org/2000/svg" width="14" height="16" viewBox="0 0 14 16"><defs><style>.cls-1{fill:#c5cbd5;fill-rule:evenodd}</style></defs><path id="Rounded_Rectangle_1_copy" data-name="Rounded Rectangle 1 copy" class="cls-1" d="M1259 670h-7a2 2 0 0 1-2-2v-9a2 2 0 0 1 2-2h7a2 2 0 0 1 2 2v9a2 2 0 0 1-2 2zm-6.5-7h4a.5.5 0 0 0 0-1h-4a.5.5 0 0 0 0 1zm6-4h-6a.5.5 0 0 0 0 1h6a.5.5 0 0 0 0-1zm-8.5-3a1 1 0 0 0-1 1v10a2 2 0 0 1-2-2v-9a2 2 0 0 1 2-2h7a2 2 0 0 1 2 2h-8z" transform="translate(-1247 -654)"/></svg>