<svg xmlns="http://www.w3.org/2000/svg" width="21.5" height="22" viewBox="0 0 21.5 22"><defs><style>.cls-1{fill:#001329;fill-rule:evenodd}</style></defs><path id="_" data-name="©" class="cls-1" d="M545.187 161.365a10.757 10.757 0 1 0 10.71-10.98 10.86 10.86 0 0 0-10.71 10.98zm2.67 0c0-4.77 3.51-8.55 8.04-8.55a8.575 8.575 0 0 1 0 17.129c-4.53 0-8.04-3.78-8.04-8.579zm2.58.06a5.637 5.637 0 0 0 5.61 5.849 5.327 5.327 0 0 0 4.89-3.18l-2.31-1.05a2.859 2.859 0 0 1-2.49 1.74c-1.86 0-2.94-1.44-2.94-3.359a3.075 3.075 0 0 1 2.94-3.36 2.817 2.817 0 0 1 2.49 1.74l2.31-1.081a5.279 5.279 0 0 0-4.89-3.15 5.657 5.657 0 0 0-5.61 5.851z" transform="translate(-545.188 -150.375)"/></svg>