<svg xmlns="http://www.w3.org/2000/svg" width="15" height="16" viewBox="0 0 15 16"><defs><style>.cls-1{fill:#428bca;fill-rule:evenodd}</style></defs><path id="delete" class="cls-1" d="M1282 410l-.45 10.655a1.355 1.355 0 0 1-1.43 1.345h-9.24a1.355 1.355 0 0 1-1.43-1.35L1269 410a.988.988 0 0 0 .74 0h-.74a1 1 0 0 1 0-2h2a2.852 2.852 0 0 1 .33-1.65 1.293 1.293 0 0 1 .92-.35h6.75c1.1 0 1 .771 1 2h2a1 1 0 0 1 0 2zm-4 10h1v-8h-1v8zm-3 0h1v-8h-1v8zm-3 0h1v-8h-1v8zm6-13h-5v1h5v-1z" transform="translate(-1268 -406)"/></svg>