<svg xmlns="http://www.w3.org/2000/svg" width="79" height="79" viewBox="0 0 79 79"><defs><style>.cls-1{fill:#ebedf0;fill-rule:evenodd}</style></defs><path id="dop" class="cls-1" d="M1022.06 795.857h6.94v4.629h-6.95A11.568 11.568 0 0 1 1012.8 819H950v-4.629h6.944a2.5 2.5 0 0 0 1.2-1.432 14.229 14.229 0 0 0 0-11.024 2.5 2.5 0 0 0-1.2-1.432H950v-4.629h6.95a11.568 11.568 0 0 1 9.252-18.518h9.873c-.086-.1-.172-.209-.257-.316a24.152 24.152 0 0 1-4.647-10.876c-1.454-8.726 3.369-16.892 11.541-16.892a11.979 11.979 0 0 1 4.708.983A11.589 11.589 0 0 1 998.913 740v4.63a6.955 6.955 0 0 0-6.795 5.516 11.935 11.935 0 0 1 4.481-.887c7.951 0 13.041 7.918 11.541 16.892a24.007 24.007 0 0 1-4.9 11.192H1029v4.63h-6.94a2.492 2.492 0 0 0-1.2 1.432 14.123 14.123 0 0 0 0 11.024 2.492 2.492 0 0 0 1.2 1.428zm-18.49-30.471c.94-5.595-1.6-11.5-6.971-11.5-3.725 0-5.778 2.718-6.944 3.665-1.168-.949-3.22-3.665-6.944-3.665-5.18 0-7.949 5.656-6.975 11.5 1.174 7.045 5.533 11.953 8.711 11.953a4.864 4.864 0 0 0 3.434-2.012l1.774-2.118 1.774 2.118a4.864 4.864 0 0 0 3.434 2.012c3.178 0 7.537-4.908 8.707-11.953zm12.85 16.581H966.2a6.945 6.945 0 0 0 0 13.89h50.219a19.2 19.2 0 0 1 .001-13.89zm-3.62 18.519h-50.221a19.1 19.1 0 0 1 0 13.888h50.221a6.944 6.944 0 0 0 0-13.888zm-39.347 4.629h37.037v4.63h-37.037v-4.63zm-4.938-18.515h37.345v4.629h-37.345V786.6z" transform="translate(-950 -740)"/></svg>