<svg xmlns="http://www.w3.org/2000/svg" width="9" height="8" viewBox="0 0 9 8"><defs><style>.cls-1{fill:#fff;fill-rule:evenodd}</style></defs><path class="cls-1" d="M9 2.531a.431.431 0 0 0-.024-.087.121.121 0 0 1 0-.018l-1-2.187-.01-.015a.154.154 0 0 0-.008-.019.338.338 0 0 0-.027-.036.317.317 0 0 0-.028-.036.29.29 0 0 0-.049-.043.269.269 0 0 0-.033-.026.311.311 0 0 0-.064-.03.331.331 0 0 0-.033-.015.419.419 0 0 0-.107-.015H1.751a.379.379 0 0 0-.1.014c-.012 0-.022.009-.034.013a.441.441 0 0 0-.059.026c-.012.007-.022.017-.033.024a.445.445 0 0 0-.048.038c-.01.01-.018.023-.027.034a.312.312 0 0 0-.032.04L.067 2.38c0 .009-.008.018-.012.027s-.011.014-.014.021a.233.233 0 0 0-.007.025.613.613 0 0 0-.018.061c0 .016-.006.032-.008.049a.414.414 0 0 0 0 .061.4.4 0 0 0 0 .05.38.38 0 0 0 .015.058.414.414 0 0 0 .019.049.177.177 0 0 0 .006.017.309.309 0 0 0 .026.037c.007.01.011.021.019.031L4.178 7.86a.37.37 0 0 0 .282.144h.022a.357.357 0 0 0 .1-.016l.028-.01a.4.4 0 0 0 .072-.035l.023-.014a.4.4 0 0 0 .074-.069l4.127-4.994a.092.092 0 0 0 .013-.021.252.252 0 0 0 .021-.025c.006-.01.009-.021.014-.031a.3.3 0 0 0 .018-.041.5.5 0 0 0 .018-.063c0-.015.006-.028.008-.043a.545.545 0 0 0 0-.07C9 2.557 9 2.544 9 2.531z"/></svg>