<svg xmlns="http://www.w3.org/2000/svg" width="9.34" height="17.41" viewBox="0 0 9.34 17.41"><defs><style>.cls-1{fill:#fff;fill-rule:evenodd}</style></defs><path id="fb" class="cls-1" d="M1252.45 1129.79h-2.24a3.944 3.944 0 0 0-4.14 4.28v1.97h-2.26a.356.356 0 0 0-.35.36v2.86a.354.354 0 0 0 .35.35h2.26v7.22a.356.356 0 0 0 .35.36h2.94a.356.356 0 0 0 .35-.36v-7.22h2.64a.354.354 0 0 0 .35-.35v-2.86a.358.358 0 0 0-.35-.36h-2.64v-1.67a1 1 0 0 1 1.23-1.21h1.51a.359.359 0 0 0 .36-.36v-2.65a.359.359 0 0 0-.36-.36z" transform="translate(-1243.47 -1129.78)"/></svg>