<svg xmlns="http://www.w3.org/2000/svg" width="16" height="13" viewBox="0 0 16 13"><defs><style>.cls-1{fill:#428bca;fill-rule:evenodd}</style></defs><path id="Forma_1_copy" data-name="Forma 1 copy" class="cls-1" d="M143.7 271.471a.733.733 0 0 1-.706.529h-12.25a.73.73 0 0 1-.587-.294.745.745 0 0 1-.15-.459V259.8a.793.793 0 0 1 .787-.8H137l2 2 3.16-.05c.57.05 1.84.062 1.84 1.05v1l1.277.669a.779.779 0 0 1 .723.868v.051zm-12.858-1.4a1.646 1.646 0 0 0-.2-.018.116.116 0 0 1-.018 0l-.046.744zM142 263h-4l-2-2h-4v5.855l.961-2.657L134 264h8v-1c.02.205.025-.255 0 0z" transform="translate(-130 -259)"/></svg>