<svg xmlns="http://www.w3.org/2000/svg" width="16" height="13" viewBox="0 0 16 13"><defs><style>.cls-1{fill:#428bca;fill-rule:evenodd}</style></defs><path id="Forma_1_copy_5" data-name="Forma 1 copy 5" class="cls-1" d="M143.7 271.471a.733.733 0 0 1-.706.529h-12.25a.73.73 0 0 1-.587-.294.745.745 0 0 1-.15-.459V259.8a.793.793 0 0 1 .787-.8H137l2 2 3.16-.05c.57.05 1.84.062 1.84 1.05v6c.419 0 2 .034 2 .537v.051zm-12.5-1.349a4.6 4.6 0 0 0-.551-.072.116.116 0 0 1-.018 0l-.046.744zM142 263h-4l-2-2h-4v8.243l.961-1.045L134 268h8v-5c.02.205.025-.255 0 0z" transform="translate(-130 -259)"/></svg>