<svg id="Группа_1" data-name="Группа 1" xmlns="http://www.w3.org/2000/svg" width="24.28" height="24" viewBox="0 0 24.28 24"><defs><style>.cls-1{fill:#fff;fill-rule:evenodd}</style></defs><path id="Shape_1_copy" data-name="Shape 1 copy" class="cls-1" d="M1093 1283a6.647 6.647 0 0 0-1.01.1l-.07-1.25h-3.16v1.79a.79.79 0 0 1-1.58 0v-1.79h-5.35v1.79a.8.8 0 0 1-.8.79.792.792 0 0 1-.79-.79v-1.79h-3.16l-.77 13.98a2.913 2.913 0 0 0 3.14 2.57h10.1a3.254 3.254 0 0 0 2.82-1.46c.21.02.41.06.63.06a6.614 6.614 0 0 0 1.1-.11 4.669 4.669 0 0 1-4.55 3.11h-10.1a4.5 4.5 0 0 1-4.73-4.19v-.08l.84-14.75a.8.8 0 0 1 .8-.72h3.88c0-3.45.81-4.26 4.26-4.26s4.26.81 4.26 4.26h3.88a.789.789 0 0 1 .8.72l.12 2.08a5.321 5.321 0 0 0-.56-.06zm-8.5-5.41c-2.58 0-2.67.09-2.67 2.67h5.35c-.01-2.58-.1-2.67-2.68-2.67z" transform="translate(-1074.72 -1276)"/><path class="cls-1" d="M1099 1291h-4v4h-2v-4h-4v-2h4v-4h2v4h4v2z" transform="translate(-1074.72 -1276)"/></svg>