<svg xmlns="http://www.w3.org/2000/svg" width="14.375" height="13.75" viewBox="0 0 14.375 13.75"><path d="M13.726 6.975a3846.207 3846.207 0 0 0-.937 3.748 1.418 1.418 0 0 1-1.226 2.094H3.749v-7.5S6.011 3.27 6.738 2.561a2.872 2.872 0 0 0 .8-1.519 1.924 1.924 0 0 1 .15-.664.783.783 0 0 1 .478-.358A1.624 1.624 0 0 1 9.25.18a2.427 2.427 0 0 1 .826 2.854L9.582 4.38s3.535-.013 3.611 0a1.429 1.429 0 0 1 .533 2.595zM2.343 13.754H.468a.469.469 0 0 1-.469-.468V4.853a.469.469 0 0 1 .469-.468h1.875a.469.469 0 0 1 .469.468v8.433a.469.469 0 0 1-.469.471z"/></svg>