<svg xmlns="http://www.w3.org/2000/svg" width="94" height="40" viewBox="0 0 94 40"><defs><style>.cls-1{fill:#ebedf0;fill-rule:evenodd}</style></defs><path id="mag" class="cls-1" d="M986.966 303.9a16.909 16.909 0 0 0 22.074 0c5.61-4.68 11.01-6.955 16.5-6.955H1045v-5.527h-19.46a41.071 41.071 0 0 0-14.72 2.867 39.04 39.04 0 0 1 10.98-6.292l12.94-4.726-1.88-5.194-12.94 4.726a45.028 45.028 0 0 0-13.81 8.242 39.86 39.86 0 0 1 8.43-9.92l10.54-8.882-3.53-4.239-10.55 8.882a46.192 46.192 0 0 0-12.926 17.935 43.52 43.52 0 0 0-12.318-17.935L975.208 268l-3.54 4.234 10.548 8.882a35.739 35.739 0 0 1 8.073 9.959 41.472 41.472 0 0 0-13.457-8.281l-12.938-4.726-1.884 5.194 12.939 4.726a35.59 35.59 0 0 1 10.981 6.589 41.358 41.358 0 0 0-15.467-3.164H951v5.527h19.461c5.493 0 10.891 2.275 16.505 6.96zm-24.948-6.955h8.445c15.892 0 26.836 9.242 27.538 9.689.706-.449 11.639-9.689 27.539-9.689h8.44v-5.527h-8.44c-6.74 0-13.47 2.769-20.02 8.231a11.421 11.421 0 0 1-15.035 0c-6.551-5.462-13.288-8.231-20.022-8.231h-8.445v5.527z" transform="translate(-951 -268)"/></svg>