<svg xmlns="http://www.w3.org/2000/svg" width="84" height="84" viewBox="0 0 84 84"><defs><style>.cls-1{fill:#ebedf0;fill-rule:evenodd}</style></defs><path id="new" class="cls-1" d="M215.92 290.725L218.741 306l-14.844-6.63-14.844 6.63 1.813-9.818h-37.014a9.856 9.856 0 0 1-9.845-9.846V229.4a7.392 7.392 0 0 1 7.383-7.385h47.092v9.847h4.923v30.718l.492-1 7.421 15.039L228 279.028zm-66.991-4.385a4.928 4.928 0 0 0 4.923 4.923v-54.484h-2.462a7.35 7.35 0 0 1-2.461-.423v49.984zm44.631-59.407h-42.17a2.462 2.462 0 0 0 0 4.924h42.17v-4.924zm4.922 9.846h-39.708v54.484h33l.1-.543-11.993-11.692 16.594-2.412 2.006-4.066v-35.771zm9.568 44.338l-4.15-8.417-4.153 8.414-9.284 1.35 6.733 6.564-1.6 8.661 8.3-3.709 8.3 3.709-1.6-8.667 6.772-6.558zM163.7 241.7h29.86v4.924H163.7V241.7z" transform="translate(-144 -222)"/></svg>