<svg xmlns="http://www.w3.org/2000/svg" width="15.5" height="10.938" viewBox="0 0 15.5 10.938"><path d="M15.407 10.399a.277.277 0 0 1-.193.075H4.788a.273.273 0 0 1-.192-.075.228.228 0 0 1-.082-.176V8.714a.231.231 0 0 1 .082-.177.273.273 0 0 1 .192-.075h10.426a.277.277 0 0 1 .193.075.234.234 0 0 1 .081.177v1.509a.23.23 0 0 1-.081.176zm-.193-3.925H4.788a.273.273 0 0 1-.192-.075.228.228 0 0 1-.082-.176V4.714a.23.23 0 0 1 .082-.177.273.273 0 0 1 .192-.075h10.426a.277.277 0 0 1 .193.075.232.232 0 0 1 .081.177v1.509a.23.23 0 0 1-.081.176.277.277 0 0 1-.193.075zm0-4H4.788a.277.277 0 0 1-.192-.074.231.231 0 0 1-.082-.177V.714a.231.231 0 0 1 .082-.177.273.273 0 0 1 .192-.075h10.426a.277.277 0 0 1 .193.075.234.234 0 0 1 .081.177v1.509a.234.234 0 0 1-.081.177.281.281 0 0 1-.193.074zM1.5 10.945a1.473 1.473 0 0 1-1.069-.43 1.465 1.465 0 0 1 0-2.093 1.541 1.541 0 0 1 2.138 0 1.465 1.465 0 0 1 0 2.093 1.471 1.471 0 0 1-1.069.43zm0-4a1.473 1.473 0 0 1-1.069-.43 1.465 1.465 0 0 1 0-2.093 1.541 1.541 0 0 1 2.138 0 1.465 1.465 0 0 1 0 2.093 1.471 1.471 0 0 1-1.069.43zm0-4a1.474 1.474 0 0 1-1.069-.431 1.465 1.465 0 0 1 0-2.093 1.541 1.541 0 0 1 2.138 0 1.465 1.465 0 0 1 0 2.093 1.472 1.472 0 0 1-1.069.432z"/></svg>