<svg xmlns="http://www.w3.org/2000/svg" width="82" height="82" viewBox="0 0 82 82"><defs><style>.cls-1{fill:#ebedf0;fill-rule:evenodd}</style></defs><path id="poisk" class="cls-1" d="M229 827.6l-3.4 3.4-12.91-12.91a16.743 16.743 0 0 1-10.073 3.356h-46a9.628 9.628 0 0 1-9.617-9.617v-55.62a7.222 7.222 0 0 1 7.213-7.209h46v9.618h4.808v29.344a16.823 16.823 0 0 1 11.07 26.732zm-77.192-15.771a4.814 4.814 0 0 0 4.809 4.808v-53.215h-2.4a7.206 7.206 0 0 1-2.405-.413v48.82zm43.6-58.024h-41.195a2.4 2.4 0 1 0 0 4.809H195.4v-4.809zm4.809 9.617h-38.792v53.215h29.427a16.821 16.821 0 0 1 9.361-28.679v-24.536zm2.4 29.172a12.022 12.022 0 1 0 12.021 12.022 12.035 12.035 0 0 0-12.021-12.022zm-36.383-24.363H195.4v4.808h-29.17v-4.808z" transform="translate(-147 -749)"/></svg>