<svg xmlns="http://www.w3.org/2000/svg" width="14.625" height="17.282" viewBox="0 0 14.625 17.282"><defs><style>.cls-1{fill:#428bca;fill-rule:evenodd}</style></defs><path id="read" class="cls-1" d="M142.165 488.1a.39.39 0 0 0-.165.322v11.749a.385.385 0 0 0 .192.34l6.77 3.685V491.6l-6.458-3.516a.328.328 0 0 0-.339.016zm14.289 0a.324.324 0 0 0-.338-.017l-6.457 3.516v12.6l6.769-3.685a.384.384 0 0 0 .192-.34v-11.751a.388.388 0 0 0-.166-.323zm-1.263-1a.334.334 0 0 0-.468-.167l-5.413 2.982-5.413-2.981a.335.335 0 0 0-.468.166.4.4 0 0 0 .153.51l5.57 3.068a.318.318 0 0 0 .158.041.315.315 0 0 0 .157-.041l5.571-3.068a.4.4 0 0 0 .153-.51z" transform="translate(-142 -486.906)"/></svg>