<svg xmlns="http://www.w3.org/2000/svg" width="15.5" height="10.938" viewBox="0 0 15.5 10.938"><path d="M1.5-.009A1.464 1.464 0 0 0 .43.422a1.465 1.465 0 0 0 0 2.093 1.468 1.468 0 0 0 1.07.431 1.484 1.484 0 0 0 1.07-.431 1.465 1.465 0 0 0 0-2.093A1.48 1.48 0 0 0 1.5-.009zm13.91.546a.293.293 0 0 0-.2-.075H4.79a.252.252 0 0 0-.19.075.224.224 0 0 0-.09.177v1.509a.224.224 0 0 0 .09.177.255.255 0 0 0 .19.074h10.42a.3.3 0 0 0 .2-.074.247.247 0 0 0 .08-.177V.714a.247.247 0 0 0-.08-.177zM1.5 3.991a1.464 1.464 0 0 0-1.07.431 1.465 1.465 0 0 0 0 2.093 1.467 1.467 0 0 0 1.07.43 1.483 1.483 0 0 0 1.07-.43 1.465 1.465 0 0 0 0-2.093 1.48 1.48 0 0 0-1.07-.431zm13.91.546a.293.293 0 0 0-.2-.075H4.79a.252.252 0 0 0-.19.075.223.223 0 0 0-.09.177v1.509a.224.224 0 0 0 .09.177.255.255 0 0 0 .19.074h10.42a.3.3 0 0 0 .2-.074.247.247 0 0 0 .08-.177V4.714a.246.246 0 0 0-.08-.177zM1.5 7.991a1.464 1.464 0 0 0-1.07.431 1.465 1.465 0 0 0 0 2.093 1.467 1.467 0 0 0 1.07.43 1.483 1.483 0 0 0 1.07-.43 1.465 1.465 0 0 0 0-2.093 1.48 1.48 0 0 0-1.07-.431zm13.91.546a.293.293 0 0 0-.2-.075H4.79a.252.252 0 0 0-.19.075.224.224 0 0 0-.09.177v1.509a.221.221 0 0 0 .09.176.252.252 0 0 0 .19.075h10.42a.293.293 0 0 0 .2-.075.243.243 0 0 0 .08-.176V8.714a.247.247 0 0 0-.08-.177z"/></svg>