<svg xmlns="http://www.w3.org/2000/svg" width="14.38" height="13.75" viewBox="0 0 14.38 13.75"><path d="M2.35 4.388H.47a.469.469 0 0 0-.47.468v8.433a.469.469 0 0 0 .47.468h1.88a.469.469 0 0 0 .47-.468V4.856a.476.476 0 0 0-.47-.468zm10.84 0c-.07-.013-3.61 0-3.61 0l.5-1.346A2.423 2.423 0 0 0 9.25.188a1.614 1.614 0 0 0-1.08-.16.773.773 0 0 0-.48.358 1.879 1.879 0 0 0-.15.664 2.871 2.871 0 0 1-.8 1.519c-.73.709-2.99 2.756-2.99 2.756v7.5h7.82a7.754 7.754 0 0 0 1.69-3.968 5.118 5.118 0 0 0-.07-4.469z"/></svg>