<svg xmlns="http://www.w3.org/2000/svg" width="22.78" height="14.75" viewBox="0 0 22.78 14.75"><path d="M22.52 3.363a1.267 1.267 0 0 0-.57-.412 1.3 1.3 0 0 1-.05.546l-2.87 9.464a.667.667 0 0 1-.34.4 1.047 1.047 0 0 1-.53.148H9.31a1.262 1.262 0 0 1-1.38-.671.4.4 0 0 1 .01-.412.416.416 0 0 1 .36-.144h8.33a1.737 1.737 0 0 0 1.23-.331 3.688 3.688 0 0 0 .69-1.472l2.63-8.686A1.359 1.359 0 0 0 21 .546a1.254 1.254 0 0 0-1.09-.537h-7.3a2.659 2.659 0 0 0-.48.086V.067a1.9 1.9 0 0 0-.45-.053.655.655 0 0 0-.35.11 1.133 1.133 0 0 0-.25.226 1.815 1.815 0 0 0-.19.306c-.06.125-.11.24-.15.346s-.09.217-.14.335a3.246 3.246 0 0 1-.16.293 2.293 2.293 0 0 1-.17.2c-.07.083-.12.157-.17.221a.551.551 0 0 0-.08.172.47.47 0 0 0 .02.254.783.783 0 0 1 .02.245 3.394 3.394 0 0 1-.26.925 3.993 3.993 0 0 1-.41.81 1.712 1.712 0 0 1-.21.216.888.888 0 0 0-.21.292.444.444 0 0 0 0 .269 1.247 1.247 0 0 1 .02.307 4.468 4.468 0 0 1-.24.862 5.892 5.892 0 0 1-.4.883 2 2 0 0 1-.17.22 1 1 0 0 0-.16.269.848.848 0 0 0 .01.268.843.843 0 0 1-.01.288 5.219 5.219 0 0 1-.29.877 5.984 5.984 0 0 1-.43.877 2.263 2.263 0 0 1-.16.226 1.9 1.9 0 0 0-.15.225.524.524 0 0 0-.08.2.364.364 0 0 0 .03.187.964.964 0 0 1 .03.206c-.01.09-.02.208-.04.355s-.03.233-.03.259a1.763 1.763 0 0 0 .02 1.218 2.742 2.742 0 0 0 .95 1.261 2.352 2.352 0 0 0 1.43.512h8.85a1.923 1.923 0 0 0 1.17-.416 1.957 1.957 0 0 0 .73-1.031L22.69 4.6a1.375 1.375 0 0 0-.17-1.237zm-10.2.019l.2-.614a.4.4 0 0 1 .16-.215.394.394 0 0 1 .24-.091h5.83a.207.207 0 0 1 .19.091.23.23 0 0 1 .02.215l-.2.614a.462.462 0 0 1-.16.216.394.394 0 0 1-.24.091h-5.83a.2.2 0 0 1-.19-.091.232.232 0 0 1-.02-.216zm-.8 2.455l.2-.614a.462.462 0 0 1 .16-.216.405.405 0 0 1 .25-.091h5.82a.227.227 0 0 1 .2.091.311.311 0 0 1 .02.216l-.21.614a.378.378 0 0 1-.15.215.421.421 0 0 1-.25.091h-5.83a.207.207 0 0 1-.19-.091.262.262 0 0 1-.02-.215zM3.94 2.875h3.9a.781.781 0 0 1 0 1.562h-3.9a.781.781 0 0 1 0-1.562zM.78 9.156h3.94a.781.781 0 0 1 0 1.562H.78a.781.781 0 0 1 0-1.562zM3.94 6H5.5a.783.783 0 0 1 .78.785v.023a.784.784 0 0 1-.78.786H3.94a.784.784 0 0 1-.78-.786v-.023A.783.783 0 0 1 3.94 6z"/></svg>