<svg xmlns="http://www.w3.org/2000/svg" width="17.04" height="14" viewBox="0 0 17.04 14"><defs><style>.cls-1{fill:#fff;fill-rule:evenodd}</style></defs><path id="tw" class="cls-1" d="M1301.17 1133.07a7.228 7.228 0 0 1-2.01.56 3.511 3.511 0 0 0 1.53-1.95 6.813 6.813 0 0 1-2.21.85 3.5 3.5 0 0 0-6.05 2.41 3.592 3.592 0 0 0 .08.81 9.867 9.867 0 0 1-7.21-3.69 3.59 3.59 0 0 0-.48 1.78 3.536 3.536 0 0 0 1.56 2.93 3.358 3.358 0 0 1-1.58-.43v.04a3.533 3.533 0 0 0 2.8 3.46 3.463 3.463 0 0 1-.92.12 2.9 2.9 0 0 1-.66-.06 3.54 3.54 0 0 0 3.27 2.46 7.04 7.04 0 0 1-4.34 1.5 5.832 5.832 0 0 1-.84-.05 9.781 9.781 0 0 0 5.37 1.58 9.925 9.925 0 0 0 9.95-10.03c0-.16-.01-.31-.01-.46a6.936 6.936 0 0 0 1.75-1.83z" transform="translate(-1284.12 -1131.41)"/></svg>