<svg xmlns="http://www.w3.org/2000/svg" width="18.53" height="10.68" viewBox="0 0 18.53 10.68"><defs><style>.cls-1{fill:#fff;fill-rule:evenodd}</style></defs><path id="vk" class="cls-1" d="M1212.6 1142.8c-.03-.05-.05-.09-.07-.12a9.6 9.6 0 0 0-1.84-2.15l-.02-.02-.01-.01-.01-.01h-.01c-.41-.4-.67-.66-.78-.8a.755.755 0 0 1-.14-.79 7.406 7.406 0 0 1 .87-1.27c.27-.35.48-.62.63-.83 1.11-1.5 1.6-2.45 1.45-2.87l-.06-.09a.574.574 0 0 0-.3-.16 1.512 1.512 0 0 0-.62-.03l-2.78.02a.427.427 0 0 0-.19.01c-.08.02-.13.03-.13.03l-.04.02-.04.03a.333.333 0 0 0-.11.1.95.95 0 0 0-.1.17 14.751 14.751 0 0 1-1.03 2.19c-.24.41-.46.75-.66 1.05a4.393 4.393 0 0 1-.5.65c-.13.14-.26.25-.36.34a.413.413 0 0 1-.26.11.936.936 0 0 0-.16-.04.728.728 0 0 1-.22-.24 1.222 1.222 0 0 1-.11-.38 3.148 3.148 0 0 1-.03-.4c-.01-.11 0-.26 0-.46s.01-.34.01-.41c0-.25.01-.52.02-.81s.01-.51.02-.68.01-.35.01-.54a2.512 2.512 0 0 0-.03-.44 2.811 2.811 0 0 0-.1-.31.677.677 0 0 0-.2-.24 1.262 1.262 0 0 0-.33-.13 6.372 6.372 0 0 0-1.3-.13 6.279 6.279 0 0 0-2.31.24 1.244 1.244 0 0 0-.36.29c-.12.14-.14.22-.05.23a1.2 1.2 0 0 1 .82.42l.06.12a1.8 1.8 0 0 1 .13.45 4.732 4.732 0 0 1 .09.71 8.227 8.227 0 0 1 0 1.22c-.03.33-.07.6-.09.79a1.881 1.881 0 0 1-.13.45 2.4 2.4 0 0 1-.12.22l-.05.05a.751.751 0 0 1-.26.05.636.636 0 0 1-.33-.14 2.308 2.308 0 0 1-.4-.38 5.843 5.843 0 0 1-.47-.66q-.255-.435-.54-1.02l-.15-.28c-.1-.18-.23-.45-.4-.79s-.31-.69-.44-1.01a.621.621 0 0 0-.23-.31l-.05-.03a.4.4 0 0 0-.16-.08 1.416 1.416 0 0 0-.22-.07l-2.65.02a.653.653 0 0 0-.55.19l-.03.05a.351.351 0 0 0-.03.16.977.977 0 0 0 .05.26c.39.92.81 1.8 1.26 2.65s.85 1.54 1.19 2.06.67 1.01 1.02 1.47.58.76.69.89.2.22.27.29l.24.23a5.193 5.193 0 0 0 .68.56 11.3 11.3 0 0 0 .99.64 5.439 5.439 0 0 0 1.27.52 4.37 4.37 0 0 0 1.41.16h1.12a.8.8 0 0 0 .51-.21l.04-.05a.842.842 0 0 0 .07-.18 1.115 1.115 0 0 0 .03-.27 4.22 4.22 0 0 1 .06-.75 1.992 1.992 0 0 1 .17-.51 1.27 1.27 0 0 1 .21-.29.756.756 0 0 1 .16-.14.16.16 0 0 1 .08-.03.56.56 0 0 1 .54.15 3.1 3.1 0 0 1 .59.56c.19.23.41.48.66.76a4.954 4.954 0 0 0 .68.62l.19.12a2.064 2.064 0 0 0 .51.21 1.036 1.036 0 0 0 .54.05l2.47-.04a1.15 1.15 0 0 0 .57-.12.505.505 0 0 0 .24-.27.615.615 0 0 0 0-.33 1.456 1.456 0 0 0-.06-.26z" transform="translate(-1194.16 -1133.16)"/></svg>